<mxfile host="app.diagrams.net" modified="2023-02-15T18:17:40.524Z" agent="5.0 (Windows NT 10.0; Win64; x64) AppleWebKit/537.36 (KHTML, like Gecko) Chrome/109.0.0.0 Safari/537.36 Edg/109.0.1518.55" etag="NNpWxwAgH_yc7rAYfN_t" version="20.8.19" type="github" pages="3">
  <diagram id="5cCi1Eh8cCQ5nzxvWx1p" name="Page-1">
    <mxGraphModel dx="1837" dy="1928" grid="0" gridSize="10" guides="1" tooltips="1" connect="1" arrows="1" fold="1" page="1" pageScale="1" pageWidth="850" pageHeight="1100" math="0" shadow="0">
      <root>
        <mxCell id="0" />
        <mxCell id="1" parent="0" />
        <mxCell id="IHYzV8KYLN-hy0-dBfOD-2" value="Client (Web Browser)" style="rounded=0;whiteSpace=wrap;html=1;horizontal=1;verticalAlign=top;" parent="1" vertex="1">
          <mxGeometry y="80" width="270" height="200" as="geometry" />
        </mxCell>
        <mxCell id="IHYzV8KYLN-hy0-dBfOD-3" value="" style="shape=image;html=1;verticalAlign=top;verticalLabelPosition=bottom;labelBackgroundColor=#ffffff;imageAspect=0;aspect=fixed;image=https://cdn2.iconfinder.com/data/icons/social-media-and-payment/64/-43-128.png" parent="1" vertex="1">
          <mxGeometry x="50" y="140" width="40" height="40" as="geometry" />
        </mxCell>
        <mxCell id="IHYzV8KYLN-hy0-dBfOD-4" value="" style="shape=image;html=1;verticalAlign=top;verticalLabelPosition=bottom;labelBackgroundColor=#ffffff;imageAspect=0;aspect=fixed;image=https://cdn0.iconfinder.com/data/icons/apple-apps/100/Apple_Safari-128.png" parent="1" vertex="1">
          <mxGeometry x="160" y="140" width="40" height="40" as="geometry" />
        </mxCell>
        <mxCell id="IHYzV8KYLN-hy0-dBfOD-5" value="" style="shape=image;html=1;verticalAlign=top;verticalLabelPosition=bottom;labelBackgroundColor=#ffffff;imageAspect=0;aspect=fixed;image=https://cdn2.iconfinder.com/data/icons/browsers/Chrome.png" parent="1" vertex="1">
          <mxGeometry x="110" y="142.5" width="35" height="35" as="geometry" />
        </mxCell>
        <mxCell id="IHYzV8KYLN-hy0-dBfOD-7" value="http(s)://" style="ellipse;shape=cloud;whiteSpace=wrap;html=1;" parent="1" vertex="1">
          <mxGeometry x="330" y="160" width="130" height="55" as="geometry" />
        </mxCell>
        <mxCell id="IHYzV8KYLN-hy0-dBfOD-8" value="Server (Web Server)" style="rounded=0;whiteSpace=wrap;html=1;horizontal=1;verticalAlign=top;" parent="1" vertex="1">
          <mxGeometry x="530" y="80" width="270" height="200" as="geometry" />
        </mxCell>
        <mxCell id="t98iltIGaiwWqyX_PigD-3" style="edgeStyle=orthogonalEdgeStyle;rounded=0;orthogonalLoop=1;jettySize=auto;html=1;entryX=1;entryY=0.75;entryDx=0;entryDy=0;fontColor=#000000;startArrow=none;startFill=0;exitX=0;exitY=0.5;exitDx=0;exitDy=0;" parent="1" source="t98iltIGaiwWqyX_PigD-7" target="IHYzV8KYLN-hy0-dBfOD-2" edge="1">
          <mxGeometry relative="1" as="geometry" />
        </mxCell>
        <mxCell id="t98iltIGaiwWqyX_PigD-6" value="JS/HTML" style="edgeLabel;html=1;align=center;verticalAlign=middle;resizable=0;points=[];fontColor=#000000;" parent="t98iltIGaiwWqyX_PigD-3" connectable="0" vertex="1">
          <mxGeometry x="0.1" y="1" relative="1" as="geometry">
            <mxPoint as="offset" />
          </mxGeometry>
        </mxCell>
        <mxCell id="IHYzV8KYLN-hy0-dBfOD-9" value="" style="shape=image;html=1;verticalAlign=top;verticalLabelPosition=bottom;labelBackgroundColor=#ffffff;imageAspect=0;aspect=fixed;image=https://cdn0.iconfinder.com/data/icons/long-shadow-web-icons/512/nodejs-128.png" parent="1" vertex="1">
          <mxGeometry x="740" y="35" width="40" height="40" as="geometry" />
        </mxCell>
        <mxCell id="IHYzV8KYLN-hy0-dBfOD-14" style="edgeStyle=orthogonalEdgeStyle;rounded=0;orthogonalLoop=1;jettySize=auto;html=1;exitX=0;exitY=0.5;exitDx=0;exitDy=0;exitPerimeter=0;startArrow=classic;startFill=1;" parent="1" source="IHYzV8KYLN-hy0-dBfOD-10" target="IHYzV8KYLN-hy0-dBfOD-8" edge="1">
          <mxGeometry relative="1" as="geometry" />
        </mxCell>
        <mxCell id="IHYzV8KYLN-hy0-dBfOD-10" value="DB Server" style="shape=cylinder3;whiteSpace=wrap;html=1;boundedLbl=1;backgroundOutline=1;size=15;" parent="1" vertex="1">
          <mxGeometry x="950" y="112.5" width="110" height="135" as="geometry" />
        </mxCell>
        <mxCell id="IHYzV8KYLN-hy0-dBfOD-11" value="" style="sketch=0;aspect=fixed;html=1;points=[];align=center;image;fontSize=12;image=img/lib/mscae/dep/SQL_Server_Stretch_DB.svg;" parent="1" vertex="1">
          <mxGeometry x="925" y="265.94" width="40" height="40" as="geometry" />
        </mxCell>
        <mxCell id="IHYzV8KYLN-hy0-dBfOD-12" value="" style="outlineConnect=0;dashed=0;verticalLabelPosition=bottom;verticalAlign=top;align=center;html=1;shape=mxgraph.aws3.postgre_sql_instance;fillColor=#2E73B8;gradientColor=none;" parent="1" vertex="1">
          <mxGeometry x="975" y="264.07" width="50" height="41.87" as="geometry" />
        </mxCell>
        <mxCell id="IHYzV8KYLN-hy0-dBfOD-13" value="" style="dashed=0;outlineConnect=0;html=1;align=center;labelPosition=center;verticalLabelPosition=bottom;verticalAlign=top;shape=mxgraph.webicons.oracle;fillColor=#FA3743;gradientColor=#E10E11" parent="1" vertex="1">
          <mxGeometry x="1035" y="260" width="50" height="50" as="geometry" />
        </mxCell>
        <mxCell id="IHYzV8KYLN-hy0-dBfOD-15" value="" style="shape=image;verticalLabelPosition=bottom;labelBackgroundColor=default;verticalAlign=top;aspect=fixed;imageAspect=0;image=https://d22e4d61ky6061.cloudfront.net/sites/default/files/Microsoft%20IIS_1.png;" parent="1" vertex="1">
          <mxGeometry x="530" y="20" width="70" height="70" as="geometry" />
        </mxCell>
        <mxCell id="IHYzV8KYLN-hy0-dBfOD-16" value="" style="shape=image;verticalLabelPosition=bottom;labelBackgroundColor=default;verticalAlign=top;aspect=fixed;imageAspect=0;image=https://st.quantrimang.com/photos/image/2020/11/04/apache-tomcat-server-va-apache-web-server-2.jpg;" parent="1" vertex="1">
          <mxGeometry x="590" y="40" width="72.9" height="30" as="geometry" />
        </mxCell>
        <mxCell id="IHYzV8KYLN-hy0-dBfOD-17" value="" style="shape=image;verticalLabelPosition=bottom;labelBackgroundColor=default;verticalAlign=top;aspect=fixed;imageAspect=0;image=https://upload.wikimedia.org/wikipedia/commons/thumb/f/fe/Apache_Tomcat_logo.svg/1200px-Apache_Tomcat_logo.svg.png;" parent="1" vertex="1">
          <mxGeometry x="680" y="40" width="42.39" height="30" as="geometry" />
        </mxCell>
        <mxCell id="IHYzV8KYLN-hy0-dBfOD-18" value="&lt;b style=&quot;color: rgb(32, 33, 34); font-family: sans-serif; font-size: 14px; text-align: start; background-color: rgb(255, 255, 255);&quot;&gt;LAMP&lt;/b&gt;&lt;span style=&quot;color: rgb(32, 33, 34); font-family: sans-serif; font-size: 14px; text-align: start; background-color: rgb(255, 255, 255);&quot;&gt;&amp;nbsp;(&lt;/span&gt;&lt;b style=&quot;color: rgb(32, 33, 34); font-family: sans-serif; font-size: 14px; text-align: start; background-color: rgb(255, 255, 255);&quot;&gt;L&lt;/b&gt;&lt;span style=&quot;color: rgb(32, 33, 34); font-family: sans-serif; font-size: 14px; text-align: start; background-color: rgb(255, 255, 255);&quot;&gt;inux,&amp;nbsp;&lt;/span&gt;&lt;b style=&quot;color: rgb(32, 33, 34); font-family: sans-serif; font-size: 14px; text-align: start; background-color: rgb(255, 255, 255);&quot;&gt;A&lt;/b&gt;&lt;span style=&quot;color: rgb(32, 33, 34); font-family: sans-serif; font-size: 14px; text-align: start; background-color: rgb(255, 255, 255);&quot;&gt;pache,&amp;nbsp;&lt;/span&gt;&lt;b style=&quot;color: rgb(32, 33, 34); font-family: sans-serif; font-size: 14px; text-align: start; background-color: rgb(255, 255, 255);&quot;&gt;M&lt;/b&gt;&lt;span style=&quot;color: rgb(32, 33, 34); font-family: sans-serif; font-size: 14px; text-align: start; background-color: rgb(255, 255, 255);&quot;&gt;ySQL,&amp;nbsp;&lt;/span&gt;&lt;b style=&quot;color: rgb(32, 33, 34); font-family: sans-serif; font-size: 14px; text-align: start; background-color: rgb(255, 255, 255);&quot;&gt;P&lt;/b&gt;&lt;span style=&quot;color: rgb(32, 33, 34); font-family: sans-serif; font-size: 14px; text-align: start; background-color: rgb(255, 255, 255);&quot;&gt;HP/&lt;/span&gt;&lt;b style=&quot;color: rgb(32, 33, 34); font-family: sans-serif; font-size: 14px; text-align: start; background-color: rgb(255, 255, 255);&quot;&gt;P&lt;/b&gt;&lt;span style=&quot;color: rgb(32, 33, 34); font-family: sans-serif; font-size: 14px; text-align: start; background-color: rgb(255, 255, 255);&quot;&gt;erl/&lt;/span&gt;&lt;b style=&quot;color: rgb(32, 33, 34); font-family: sans-serif; font-size: 14px; text-align: start; background-color: rgb(255, 255, 255);&quot;&gt;P&lt;/b&gt;&lt;span style=&quot;color: rgb(32, 33, 34); font-family: sans-serif; font-size: 14px; text-align: start; background-color: rgb(255, 255, 255);&quot;&gt;ython)&amp;nbsp;&lt;/span&gt;" style="text;html=1;strokeColor=none;fillColor=none;align=center;verticalAlign=middle;whiteSpace=wrap;rounded=0;" parent="1" vertex="1">
          <mxGeometry x="-51" y="1513" width="500" height="30" as="geometry" />
        </mxCell>
        <mxCell id="IHYzV8KYLN-hy0-dBfOD-20" value="" style="shape=image;verticalLabelPosition=bottom;labelBackgroundColor=default;verticalAlign=top;aspect=fixed;imageAspect=0;image=https://upload.wikimedia.org/wikipedia/commons/thumb/9/93/MongoDB_Logo.svg/2560px-MongoDB_Logo.svg.png;" parent="1" vertex="1">
          <mxGeometry x="925.71" y="330" width="148.57" height="40" as="geometry" />
        </mxCell>
        <mxCell id="t98iltIGaiwWqyX_PigD-1" value="&lt;p style=&quot;-webkit-font-smoothing: antialiased; box-sizing: border-box; margin-top: 0px; margin-bottom: 1rem; font-feature-settings: &amp;quot;ss01&amp;quot;; font-family: &amp;quot;Charlie Text&amp;quot;, -apple-system, BlinkMacSystemFont, &amp;quot;Segoe UI&amp;quot;, Roboto, &amp;quot;Helvetica Neue&amp;quot;, Arial, sans-serif, &amp;quot;Apple Color Emoji&amp;quot;, &amp;quot;Segoe UI Emoji&amp;quot;, &amp;quot;Segoe UI Symbol&amp;quot;; font-size: 18px; text-align: left; background-color: rgb(255, 255, 255);&quot;&gt;&lt;span style=&quot;color: rgb(23, 43, 77); -webkit-font-smoothing: antialiased; box-sizing: border-box; font-weight: bolder;&quot;&gt;WISA (&lt;/span&gt;&lt;span style=&quot;color: rgb(23, 43, 77); -webkit-font-smoothing: antialiased; box-sizing: border-box;&quot;&gt;&lt;b&gt;W&lt;/b&gt;indows Server / &lt;/span&gt;&lt;span style=&quot;color: rgb(23, 43, 77); -webkit-font-smoothing: antialiased; box-sizing: border-box;&quot;&gt;&lt;b&gt;I&lt;/b&gt;&lt;/span&gt;&lt;span style=&quot;color: rgb(23, 43, 77); -webkit-font-smoothing: antialiased; box-sizing: border-box;&quot;&gt;IS / Microsoft &lt;b&gt;S&lt;/b&gt;QL Server /&lt;/span&gt;&lt;font color=&quot;#172b4d&quot;&gt;&amp;nbsp;&lt;/font&gt;&lt;a style=&quot;-webkit-font-smoothing: antialiased; box-sizing: border-box; text-decoration-line: none; background-color: transparent;&quot; href=&quot;http://asp.net/&quot;&gt;&lt;span style=&quot;-webkit-font-smoothing: antialiased; box-sizing: border-box;&quot;&gt;&lt;font color=&quot;#000000&quot;&gt;&lt;b style=&quot;&quot;&gt;A&lt;/b&gt;SP.&lt;/font&gt;&lt;/span&gt;&lt;/a&gt;NET&lt;/p&gt;" style="text;html=1;strokeColor=none;fillColor=none;align=center;verticalAlign=middle;whiteSpace=wrap;rounded=0;" parent="1" vertex="1">
          <mxGeometry x="22" y="1113" width="530" height="100" as="geometry" />
        </mxCell>
        <mxCell id="t98iltIGaiwWqyX_PigD-2" value="&lt;p style=&quot;-webkit-font-smoothing: antialiased; box-sizing: border-box; margin-top: 0px; margin-bottom: 1rem; font-feature-settings: &amp;quot;ss01&amp;quot;; color: rgb(23, 43, 77); font-family: &amp;quot;Charlie Text&amp;quot;, -apple-system, BlinkMacSystemFont, &amp;quot;Segoe UI&amp;quot;, Roboto, &amp;quot;Helvetica Neue&amp;quot;, Arial, sans-serif, &amp;quot;Apple Color Emoji&amp;quot;, &amp;quot;Segoe UI Emoji&amp;quot;, &amp;quot;Segoe UI Symbol&amp;quot;; font-size: 18px; text-align: left; background-color: rgb(255, 255, 255);&quot;&gt;&lt;span style=&quot;-webkit-font-smoothing: antialiased; box-sizing: border-box; font-weight: bolder;&quot;&gt;MEAN&lt;/span&gt;&lt;/p&gt;&lt;p style=&quot;-webkit-font-smoothing: antialiased; box-sizing: border-box; margin-top: 0px; margin-bottom: 1rem; font-feature-settings: &amp;quot;ss01&amp;quot;; color: rgb(23, 43, 77); font-family: &amp;quot;Charlie Text&amp;quot;, -apple-system, BlinkMacSystemFont, &amp;quot;Segoe UI&amp;quot;, Roboto, &amp;quot;Helvetica Neue&amp;quot;, Arial, sans-serif, &amp;quot;Apple Color Emoji&amp;quot;, &amp;quot;Segoe UI Emoji&amp;quot;, &amp;quot;Segoe UI Symbol&amp;quot;; font-size: 18px; text-align: left; background-color: rgb(255, 255, 255);&quot;&gt;&lt;span style=&quot;-webkit-font-smoothing: antialiased; box-sizing: border-box; font-weight: bolder;&quot;&gt;M&lt;/span&gt;ongoDB (Data persistence)&lt;/p&gt;&lt;p style=&quot;-webkit-font-smoothing: antialiased; box-sizing: border-box; margin-top: 0px; margin-bottom: 1rem; font-feature-settings: &amp;quot;ss01&amp;quot;; color: rgb(23, 43, 77); font-family: &amp;quot;Charlie Text&amp;quot;, -apple-system, BlinkMacSystemFont, &amp;quot;Segoe UI&amp;quot;, Roboto, &amp;quot;Helvetica Neue&amp;quot;, Arial, sans-serif, &amp;quot;Apple Color Emoji&amp;quot;, &amp;quot;Segoe UI Emoji&amp;quot;, &amp;quot;Segoe UI Symbol&amp;quot;; font-size: 18px; text-align: left; background-color: rgb(255, 255, 255);&quot;&gt;&lt;span style=&quot;-webkit-font-smoothing: antialiased; box-sizing: border-box; font-weight: bolder;&quot;&gt;E&lt;/span&gt;xpress.js (server-side application framework)&lt;/p&gt;&lt;p style=&quot;-webkit-font-smoothing: antialiased; box-sizing: border-box; margin-top: 0px; margin-bottom: 1rem; font-feature-settings: &amp;quot;ss01&amp;quot;; color: rgb(23, 43, 77); font-family: &amp;quot;Charlie Text&amp;quot;, -apple-system, BlinkMacSystemFont, &amp;quot;Segoe UI&amp;quot;, Roboto, &amp;quot;Helvetica Neue&amp;quot;, Arial, sans-serif, &amp;quot;Apple Color Emoji&amp;quot;, &amp;quot;Segoe UI Emoji&amp;quot;, &amp;quot;Segoe UI Symbol&amp;quot;; font-size: 18px; text-align: left; background-color: rgb(255, 255, 255);&quot;&gt;&lt;span style=&quot;-webkit-font-smoothing: antialiased; box-sizing: border-box; font-weight: bolder;&quot;&gt;A&lt;/span&gt;ngular.js (client-side application framework)&lt;/p&gt;&lt;p style=&quot;-webkit-font-smoothing: antialiased; box-sizing: border-box; margin-top: 0px; margin-bottom: 1rem; font-feature-settings: &amp;quot;ss01&amp;quot;; color: rgb(23, 43, 77); font-family: &amp;quot;Charlie Text&amp;quot;, -apple-system, BlinkMacSystemFont, &amp;quot;Segoe UI&amp;quot;, Roboto, &amp;quot;Helvetica Neue&amp;quot;, Arial, sans-serif, &amp;quot;Apple Color Emoji&amp;quot;, &amp;quot;Segoe UI Emoji&amp;quot;, &amp;quot;Segoe UI Symbol&amp;quot;; font-size: 18px; text-align: left; background-color: rgb(255, 255, 255);&quot;&gt;&lt;span style=&quot;-webkit-font-smoothing: antialiased; box-sizing: border-box; font-weight: bolder;&quot;&gt;N&lt;/span&gt;ode.js (server-side environment)&lt;br style=&quot;-webkit-font-smoothing: antialiased; box-sizing: border-box;&quot;&gt;&lt;/p&gt;&lt;p style=&quot;-webkit-font-smoothing: antialiased; box-sizing: border-box; margin-top: 0px; margin-bottom: 1rem; font-feature-settings: &amp;quot;ss01&amp;quot;; color: rgb(23, 43, 77); font-family: &amp;quot;Charlie Text&amp;quot;, -apple-system, BlinkMacSystemFont, &amp;quot;Segoe UI&amp;quot;, Roboto, &amp;quot;Helvetica Neue&amp;quot;, Arial, sans-serif, &amp;quot;Apple Color Emoji&amp;quot;, &amp;quot;Segoe UI Emoji&amp;quot;, &amp;quot;Segoe UI Symbol&amp;quot;; font-size: 18px; text-align: left; background-color: rgb(255, 255, 255);&quot;&gt;This stack has some derivatives too:&lt;/p&gt;&lt;ul style=&quot;-webkit-font-smoothing: antialiased; box-sizing: border-box; margin-top: 0px; margin-bottom: 1rem; color: rgb(23, 43, 77); font-family: &amp;quot;Charlie Text&amp;quot;, -apple-system, BlinkMacSystemFont, &amp;quot;Segoe UI&amp;quot;, Roboto, &amp;quot;Helvetica Neue&amp;quot;, Arial, sans-serif, &amp;quot;Apple Color Emoji&amp;quot;, &amp;quot;Segoe UI Emoji&amp;quot;, &amp;quot;Segoe UI Symbol&amp;quot;; font-size: 18px; text-align: left; background-color: rgb(255, 255, 255);&quot;&gt;&lt;li style=&quot;-webkit-font-smoothing: antialiased; box-sizing: border-box; font-feature-settings: &amp;quot;ss01&amp;quot;;&quot;&gt;MERN (React instead of Angular)&lt;/li&gt;&lt;li style=&quot;-webkit-font-smoothing: antialiased; box-sizing: border-box; font-feature-settings: &amp;quot;ss01&amp;quot;;&quot;&gt;MEEN (Ember.js instead of Angular)&lt;/li&gt;&lt;/ul&gt;" style="text;html=1;strokeColor=none;fillColor=none;align=center;verticalAlign=middle;whiteSpace=wrap;rounded=0;fontColor=#000000;" parent="1" vertex="1">
          <mxGeometry x="2" y="1200" width="431" height="310" as="geometry" />
        </mxCell>
        <mxCell id="t98iltIGaiwWqyX_PigD-7" value="Business Logic" style="rounded=0;whiteSpace=wrap;html=1;fontColor=#000000;fillColor=#B3B3B3;" parent="1" vertex="1">
          <mxGeometry x="605" y="200" width="120" height="60" as="geometry" />
        </mxCell>
        <mxCell id="t98iltIGaiwWqyX_PigD-12" value="" style="shape=image;verticalLabelPosition=bottom;labelBackgroundColor=default;verticalAlign=top;aspect=fixed;imageAspect=0;image=https://i.pinimg.com/originals/b8/d6/d5/b8d6d57b6dc9dcc7a5d8dd49be115e72.jpg;" parent="1" vertex="1">
          <mxGeometry x="142.9" y="-280" width="520" height="252" as="geometry" />
        </mxCell>
        <mxCell id="t98iltIGaiwWqyX_PigD-13" value="Web Service&lt;br&gt;(Web API)" style="rounded=0;whiteSpace=wrap;html=1;fontColor=#000000;fillColor=#D5E8D4;" parent="1" vertex="1">
          <mxGeometry x="605" y="115.5" width="120" height="60" as="geometry" />
        </mxCell>
        <mxCell id="t98iltIGaiwWqyX_PigD-14" style="edgeStyle=orthogonalEdgeStyle;rounded=0;orthogonalLoop=1;jettySize=auto;html=1;entryX=1;entryY=0.35;entryDx=0;entryDy=0;fontColor=#000000;startArrow=none;startFill=0;entryPerimeter=0;exitX=0;exitY=0.5;exitDx=0;exitDy=0;" parent="1" source="t98iltIGaiwWqyX_PigD-13" target="IHYzV8KYLN-hy0-dBfOD-2" edge="1">
          <mxGeometry relative="1" as="geometry">
            <mxPoint x="460" y="110" as="sourcePoint" />
            <mxPoint x="280" y="240" as="targetPoint" />
            <Array as="points">
              <mxPoint x="605" y="150" />
            </Array>
          </mxGeometry>
        </mxCell>
        <mxCell id="t98iltIGaiwWqyX_PigD-15" value="JSON" style="edgeLabel;html=1;align=center;verticalAlign=middle;resizable=0;points=[];fontColor=#000000;" parent="t98iltIGaiwWqyX_PigD-14" connectable="0" vertex="1">
          <mxGeometry x="0.1" y="1" relative="1" as="geometry">
            <mxPoint as="offset" />
          </mxGeometry>
        </mxCell>
        <mxCell id="KGwbMUtfveAvBgW0088o-1" value="HTML&lt;br&gt;JavaScript" style="text;html=1;strokeColor=none;fillColor=none;align=left;verticalAlign=top;whiteSpace=wrap;rounded=0;fontColor=#000000;" parent="1" vertex="1">
          <mxGeometry x="20" y="350" width="210" height="30" as="geometry" />
        </mxCell>
        <mxCell id="KGwbMUtfveAvBgW0088o-2" value="No server processing" style="text;html=1;strokeColor=none;fillColor=none;align=left;verticalAlign=top;whiteSpace=wrap;rounded=0;fontColor=#000000;" parent="1" vertex="1">
          <mxGeometry x="520" y="350" width="210" height="30" as="geometry" />
        </mxCell>
        <mxCell id="KGwbMUtfveAvBgW0088o-3" value="1" style="text;html=1;strokeColor=none;fillColor=none;align=center;verticalAlign=middle;whiteSpace=wrap;rounded=0;fontColor=#000000;" parent="1" vertex="1">
          <mxGeometry y="320" width="60" height="30" as="geometry" />
        </mxCell>
        <mxCell id="KGwbMUtfveAvBgW0088o-4" value="HTML&lt;br&gt;JavaScript" style="text;html=1;strokeColor=none;fillColor=none;align=left;verticalAlign=top;whiteSpace=wrap;rounded=0;fontColor=#000000;" parent="1" vertex="1">
          <mxGeometry x="20" y="440" width="210" height="30" as="geometry" />
        </mxCell>
        <mxCell id="KGwbMUtfveAvBgW0088o-5" value="Server processing&lt;br&gt;(server-side application framework&lt;br&gt;&lt;br&gt;ASP classic&lt;br&gt;ASP.NET Web Forms&lt;br&gt;ASP.NET MVC&lt;br&gt;.NET Framework 4.x (run on Windows ONLY)&lt;br&gt;&lt;br&gt;.NET Core 2.1, 3.1 , 5, 6 (run all OS Windows, Linux, MacOS)&lt;br&gt;ASP.NET Core MVC&lt;br&gt;" style="text;html=1;strokeColor=none;fillColor=none;align=left;verticalAlign=top;whiteSpace=wrap;rounded=0;fontColor=#000000;" parent="1" vertex="1">
          <mxGeometry x="520" y="439" width="413" height="166" as="geometry" />
        </mxCell>
        <mxCell id="KGwbMUtfveAvBgW0088o-6" value="2" style="text;html=1;strokeColor=none;fillColor=none;align=center;verticalAlign=middle;whiteSpace=wrap;rounded=0;fontColor=#000000;" parent="1" vertex="1">
          <mxGeometry y="410" width="60" height="30" as="geometry" />
        </mxCell>
        <mxCell id="KGwbMUtfveAvBgW0088o-7" style="edgeStyle=orthogonalEdgeStyle;rounded=0;orthogonalLoop=1;jettySize=auto;html=1;fontColor=#000000;startArrow=none;startFill=0;exitX=1;exitY=0.25;exitDx=0;exitDy=0;entryX=0;entryY=0.25;entryDx=0;entryDy=0;" parent="1" source="IHYzV8KYLN-hy0-dBfOD-2" target="t98iltIGaiwWqyX_PigD-13" edge="1">
          <mxGeometry relative="1" as="geometry">
            <mxPoint x="615" y="155.5" as="sourcePoint" />
            <mxPoint x="450" y="90" as="targetPoint" />
            <Array as="points">
              <mxPoint x="270" y="100" />
              <mxPoint x="450" y="100" />
              <mxPoint x="450" y="131" />
            </Array>
          </mxGeometry>
        </mxCell>
        <mxCell id="KGwbMUtfveAvBgW0088o-8" value="JSON" style="edgeLabel;html=1;align=center;verticalAlign=middle;resizable=0;points=[];fontColor=#000000;" parent="KGwbMUtfveAvBgW0088o-7" connectable="0" vertex="1">
          <mxGeometry x="0.1" y="1" relative="1" as="geometry">
            <mxPoint as="offset" />
          </mxGeometry>
        </mxCell>
        <mxCell id="KGwbMUtfveAvBgW0088o-10" value="AJAX" style="edgeLabel;html=1;align=center;verticalAlign=middle;resizable=0;points=[];fontColor=#000000;" parent="KGwbMUtfveAvBgW0088o-7" connectable="0" vertex="1">
          <mxGeometry x="-0.3173" y="1" relative="1" as="geometry">
            <mxPoint as="offset" />
          </mxGeometry>
        </mxCell>
        <mxCell id="KGwbMUtfveAvBgW0088o-11" value="Physical (hardware) - Machine" style="rounded=0;whiteSpace=wrap;html=1;fontColor=#000000;fillColor=#D5E8D4;verticalAlign=top;" parent="1" vertex="1">
          <mxGeometry x="450" y="798" width="362" height="233" as="geometry" />
        </mxCell>
        <mxCell id="KGwbMUtfveAvBgW0088o-12" value="OS (Windows, Linux...)" style="rounded=0;whiteSpace=wrap;html=1;fontColor=#000000;fillColor=#FFF2CC;verticalAlign=top;" parent="1" vertex="1">
          <mxGeometry x="461" y="822" width="333" height="194" as="geometry" />
        </mxCell>
        <mxCell id="KGwbMUtfveAvBgW0088o-13" value="IIS (Web server)&lt;br&gt;80" style="rounded=0;whiteSpace=wrap;html=1;fontColor=#000000;fillColor=#B9E0A5;" parent="1" vertex="1">
          <mxGeometry x="480" y="861" width="120" height="60" as="geometry" />
        </mxCell>
        <mxCell id="KGwbMUtfveAvBgW0088o-14" style="edgeStyle=none;rounded=0;orthogonalLoop=1;jettySize=auto;html=1;exitX=1;exitY=0.75;exitDx=0;exitDy=0;fontColor=#000000;startArrow=none;startFill=0;" parent="1" source="KGwbMUtfveAvBgW0088o-13" target="KGwbMUtfveAvBgW0088o-13" edge="1">
          <mxGeometry relative="1" as="geometry" />
        </mxCell>
        <mxCell id="KGwbMUtfveAvBgW0088o-15" value="Node JS&lt;br&gt;!= 80" style="rounded=0;whiteSpace=wrap;html=1;fontColor=#000000;fillColor=#B9E0A5;" parent="1" vertex="1">
          <mxGeometry x="622" y="861" width="120" height="60" as="geometry" />
        </mxCell>
        <mxCell id="KGwbMUtfveAvBgW0088o-16" value="http(s)://" style="ellipse;shape=cloud;whiteSpace=wrap;html=1;" parent="1" vertex="1">
          <mxGeometry x="93" y="968" width="130" height="55" as="geometry" />
        </mxCell>
        <mxCell id="KGwbMUtfveAvBgW0088o-17" value="https:port//donamin.com&lt;br&gt;&lt;br&gt;default: 80&lt;br&gt;8000" style="text;html=1;strokeColor=none;fillColor=none;align=center;verticalAlign=middle;whiteSpace=wrap;rounded=0;fontColor=#000000;" parent="1" vertex="1">
          <mxGeometry x="152" y="905" width="60" height="30" as="geometry" />
        </mxCell>
        <mxCell id="KGwbMUtfveAvBgW0088o-18" value="&lt;span style=&quot;color: rgb(23, 43, 77); font-family: &amp;quot;Charlie Text&amp;quot;, -apple-system, BlinkMacSystemFont, &amp;quot;Segoe UI&amp;quot;, Roboto, &amp;quot;Helvetica Neue&amp;quot;, Arial, sans-serif, &amp;quot;Apple Color Emoji&amp;quot;, &amp;quot;Segoe UI Emoji&amp;quot;, &amp;quot;Segoe UI Symbol&amp;quot;; font-size: 14px; background-color: rgb(255, 255, 255);&quot;&gt;client library&lt;br style=&quot;font-size: 14px;&quot;&gt;jQuery&lt;br style=&quot;font-size: 14px;&quot;&gt;&lt;br style=&quot;font-size: 14px;&quot;&gt;&lt;br style=&quot;font-size: 14px;&quot;&gt;client-side application framework&lt;br style=&quot;font-size: 14px;&quot;&gt;Angular&lt;br style=&quot;font-size: 14px;&quot;&gt;React&lt;br style=&quot;font-size: 14px;&quot;&gt;Vue JS&lt;br style=&quot;font-size: 14px;&quot;&gt;&lt;/span&gt;" style="text;html=1;strokeColor=none;fillColor=none;align=left;verticalAlign=top;whiteSpace=wrap;rounded=0;fontColor=#000000;fontSize=14;" parent="1" vertex="1">
          <mxGeometry x="20" y="509" width="358" height="206" as="geometry" />
        </mxCell>
      </root>
    </mxGraphModel>
  </diagram>
  <diagram id="Kfm72_BVPnwSHHTGpmAe" name="Page-2">
    <mxGraphModel dx="987" dy="828" grid="1" gridSize="10" guides="1" tooltips="1" connect="1" arrows="1" fold="1" page="1" pageScale="1" pageWidth="850" pageHeight="1100" math="0" shadow="0">
      <root>
        <mxCell id="0" />
        <mxCell id="1" parent="0" />
        <mxCell id="rtX21FW4LfnfoEYosthL-2" value="Partner" style="shape=table;startSize=30;container=1;collapsible=1;childLayout=tableLayout;fixedRows=1;rowLines=0;fontStyle=1;align=center;resizeLast=1;" parent="1" vertex="1">
          <mxGeometry x="40" y="50" width="260" height="400" as="geometry" />
        </mxCell>
        <mxCell id="rtX21FW4LfnfoEYosthL-3" value="" style="shape=tableRow;horizontal=0;startSize=0;swimlaneHead=0;swimlaneBody=0;fillColor=none;collapsible=0;dropTarget=0;points=[[0,0.5],[1,0.5]];portConstraint=eastwest;top=0;left=0;right=0;bottom=1;" parent="rtX21FW4LfnfoEYosthL-2" vertex="1">
          <mxGeometry y="30" width="260" height="30" as="geometry" />
        </mxCell>
        <mxCell id="rtX21FW4LfnfoEYosthL-4" value="PK" style="shape=partialRectangle;connectable=0;fillColor=none;top=0;left=0;bottom=0;right=0;fontStyle=1;overflow=hidden;" parent="rtX21FW4LfnfoEYosthL-3" vertex="1">
          <mxGeometry width="30" height="30" as="geometry">
            <mxRectangle width="30" height="30" as="alternateBounds" />
          </mxGeometry>
        </mxCell>
        <mxCell id="rtX21FW4LfnfoEYosthL-5" value="PartnerID" style="shape=partialRectangle;connectable=0;fillColor=none;top=0;left=0;bottom=0;right=0;align=left;spacingLeft=6;fontStyle=5;overflow=hidden;" parent="rtX21FW4LfnfoEYosthL-3" vertex="1">
          <mxGeometry x="30" width="230" height="30" as="geometry">
            <mxRectangle width="230" height="30" as="alternateBounds" />
          </mxGeometry>
        </mxCell>
        <mxCell id="rtX21FW4LfnfoEYosthL-6" value="" style="shape=tableRow;horizontal=0;startSize=0;swimlaneHead=0;swimlaneBody=0;fillColor=none;collapsible=0;dropTarget=0;points=[[0,0.5],[1,0.5]];portConstraint=eastwest;top=0;left=0;right=0;bottom=0;" parent="rtX21FW4LfnfoEYosthL-2" vertex="1">
          <mxGeometry y="60" width="260" height="30" as="geometry" />
        </mxCell>
        <mxCell id="rtX21FW4LfnfoEYosthL-7" value="" style="shape=partialRectangle;connectable=0;fillColor=none;top=0;left=0;bottom=0;right=0;editable=1;overflow=hidden;" parent="rtX21FW4LfnfoEYosthL-6" vertex="1">
          <mxGeometry width="30" height="30" as="geometry">
            <mxRectangle width="30" height="30" as="alternateBounds" />
          </mxGeometry>
        </mxCell>
        <mxCell id="rtX21FW4LfnfoEYosthL-8" value="FName" style="shape=partialRectangle;connectable=0;fillColor=none;top=0;left=0;bottom=0;right=0;align=left;spacingLeft=6;overflow=hidden;" parent="rtX21FW4LfnfoEYosthL-6" vertex="1">
          <mxGeometry x="30" width="230" height="30" as="geometry">
            <mxRectangle width="230" height="30" as="alternateBounds" />
          </mxGeometry>
        </mxCell>
        <mxCell id="rtX21FW4LfnfoEYosthL-9" value="" style="shape=tableRow;horizontal=0;startSize=0;swimlaneHead=0;swimlaneBody=0;fillColor=none;collapsible=0;dropTarget=0;points=[[0,0.5],[1,0.5]];portConstraint=eastwest;top=0;left=0;right=0;bottom=0;" parent="rtX21FW4LfnfoEYosthL-2" vertex="1">
          <mxGeometry y="90" width="260" height="30" as="geometry" />
        </mxCell>
        <mxCell id="rtX21FW4LfnfoEYosthL-10" value="" style="shape=partialRectangle;connectable=0;fillColor=none;top=0;left=0;bottom=0;right=0;editable=1;overflow=hidden;" parent="rtX21FW4LfnfoEYosthL-9" vertex="1">
          <mxGeometry width="30" height="30" as="geometry">
            <mxRectangle width="30" height="30" as="alternateBounds" />
          </mxGeometry>
        </mxCell>
        <mxCell id="rtX21FW4LfnfoEYosthL-11" value="LName" style="shape=partialRectangle;connectable=0;fillColor=none;top=0;left=0;bottom=0;right=0;align=left;spacingLeft=6;overflow=hidden;" parent="rtX21FW4LfnfoEYosthL-9" vertex="1">
          <mxGeometry x="30" width="230" height="30" as="geometry">
            <mxRectangle width="230" height="30" as="alternateBounds" />
          </mxGeometry>
        </mxCell>
        <mxCell id="rtX21FW4LfnfoEYosthL-12" value="" style="shape=tableRow;horizontal=0;startSize=0;swimlaneHead=0;swimlaneBody=0;fillColor=none;collapsible=0;dropTarget=0;points=[[0,0.5],[1,0.5]];portConstraint=eastwest;top=0;left=0;right=0;bottom=0;" parent="rtX21FW4LfnfoEYosthL-2" vertex="1">
          <mxGeometry y="120" width="260" height="280" as="geometry" />
        </mxCell>
        <mxCell id="rtX21FW4LfnfoEYosthL-13" value="" style="shape=partialRectangle;connectable=0;fillColor=none;top=0;left=0;bottom=0;right=0;editable=1;overflow=hidden;" parent="rtX21FW4LfnfoEYosthL-12" vertex="1">
          <mxGeometry width="30" height="280" as="geometry">
            <mxRectangle width="30" height="280" as="alternateBounds" />
          </mxGeometry>
        </mxCell>
        <mxCell id="rtX21FW4LfnfoEYosthL-14" value="" style="shape=partialRectangle;connectable=0;fillColor=none;top=0;left=0;bottom=0;right=0;align=left;spacingLeft=6;overflow=hidden;" parent="rtX21FW4LfnfoEYosthL-12" vertex="1">
          <mxGeometry x="30" width="230" height="280" as="geometry">
            <mxRectangle width="230" height="280" as="alternateBounds" />
          </mxGeometry>
        </mxCell>
        <mxCell id="rtX21FW4LfnfoEYosthL-15" value="TypeID" style="shape=partialRectangle;connectable=0;fillColor=none;top=0;left=0;bottom=0;right=0;align=left;spacingLeft=6;overflow=hidden;" parent="1" vertex="1">
          <mxGeometry x="70" y="170" width="150" height="30" as="geometry">
            <mxRectangle width="150" height="30" as="alternateBounds" />
          </mxGeometry>
        </mxCell>
        <mxCell id="rtX21FW4LfnfoEYosthL-21" value="OfficeID" style="shape=partialRectangle;connectable=0;fillColor=none;top=0;left=0;bottom=0;right=0;align=left;spacingLeft=6;overflow=hidden;" parent="1" vertex="1">
          <mxGeometry x="70" y="230" width="150" height="30" as="geometry">
            <mxRectangle width="150" height="30" as="alternateBounds" />
          </mxGeometry>
        </mxCell>
        <mxCell id="rtX21FW4LfnfoEYosthL-22" value="AddressID" style="shape=partialRectangle;connectable=0;fillColor=none;top=0;left=0;bottom=0;right=0;align=left;spacingLeft=6;overflow=hidden;" parent="1" vertex="1">
          <mxGeometry x="70" y="260" width="150" height="30" as="geometry">
            <mxRectangle width="150" height="30" as="alternateBounds" />
          </mxGeometry>
        </mxCell>
        <mxCell id="rtX21FW4LfnfoEYosthL-23" value="StatusID (Active/Retired/Withdrawn)" style="shape=partialRectangle;connectable=0;fillColor=none;top=0;left=0;bottom=0;right=0;align=left;spacingLeft=6;overflow=hidden;" parent="1" vertex="1">
          <mxGeometry x="70" y="200" width="200" height="30" as="geometry">
            <mxRectangle width="150" height="30" as="alternateBounds" />
          </mxGeometry>
        </mxCell>
        <mxCell id="rtX21FW4LfnfoEYosthL-24" value="PartnerType" style="shape=table;startSize=30;container=1;collapsible=1;childLayout=tableLayout;fixedRows=1;rowLines=0;fontStyle=1;align=center;resizeLast=1;" parent="1" vertex="1">
          <mxGeometry x="340" y="50" width="180" height="140" as="geometry" />
        </mxCell>
        <mxCell id="rtX21FW4LfnfoEYosthL-25" value="" style="shape=tableRow;horizontal=0;startSize=0;swimlaneHead=0;swimlaneBody=0;fillColor=none;collapsible=0;dropTarget=0;points=[[0,0.5],[1,0.5]];portConstraint=eastwest;top=0;left=0;right=0;bottom=1;" parent="rtX21FW4LfnfoEYosthL-24" vertex="1">
          <mxGeometry y="30" width="180" height="30" as="geometry" />
        </mxCell>
        <mxCell id="rtX21FW4LfnfoEYosthL-26" value="PK" style="shape=partialRectangle;connectable=0;fillColor=none;top=0;left=0;bottom=0;right=0;fontStyle=1;overflow=hidden;" parent="rtX21FW4LfnfoEYosthL-25" vertex="1">
          <mxGeometry width="30" height="30" as="geometry">
            <mxRectangle width="30" height="30" as="alternateBounds" />
          </mxGeometry>
        </mxCell>
        <mxCell id="rtX21FW4LfnfoEYosthL-27" value="TypeID" style="shape=partialRectangle;connectable=0;fillColor=none;top=0;left=0;bottom=0;right=0;align=left;spacingLeft=6;fontStyle=5;overflow=hidden;" parent="rtX21FW4LfnfoEYosthL-25" vertex="1">
          <mxGeometry x="30" width="150" height="30" as="geometry">
            <mxRectangle width="150" height="30" as="alternateBounds" />
          </mxGeometry>
        </mxCell>
        <mxCell id="rtX21FW4LfnfoEYosthL-28" value="" style="shape=tableRow;horizontal=0;startSize=0;swimlaneHead=0;swimlaneBody=0;fillColor=none;collapsible=0;dropTarget=0;points=[[0,0.5],[1,0.5]];portConstraint=eastwest;top=0;left=0;right=0;bottom=0;" parent="rtX21FW4LfnfoEYosthL-24" vertex="1">
          <mxGeometry y="60" width="180" height="30" as="geometry" />
        </mxCell>
        <mxCell id="rtX21FW4LfnfoEYosthL-29" value="" style="shape=partialRectangle;connectable=0;fillColor=none;top=0;left=0;bottom=0;right=0;editable=1;overflow=hidden;" parent="rtX21FW4LfnfoEYosthL-28" vertex="1">
          <mxGeometry width="30" height="30" as="geometry">
            <mxRectangle width="30" height="30" as="alternateBounds" />
          </mxGeometry>
        </mxCell>
        <mxCell id="rtX21FW4LfnfoEYosthL-30" value="Name (Domestic/Foreign)" style="shape=partialRectangle;connectable=0;fillColor=none;top=0;left=0;bottom=0;right=0;align=left;spacingLeft=6;overflow=hidden;" parent="rtX21FW4LfnfoEYosthL-28" vertex="1">
          <mxGeometry x="30" width="150" height="30" as="geometry">
            <mxRectangle width="150" height="30" as="alternateBounds" />
          </mxGeometry>
        </mxCell>
        <mxCell id="rtX21FW4LfnfoEYosthL-31" value="" style="shape=tableRow;horizontal=0;startSize=0;swimlaneHead=0;swimlaneBody=0;fillColor=none;collapsible=0;dropTarget=0;points=[[0,0.5],[1,0.5]];portConstraint=eastwest;top=0;left=0;right=0;bottom=0;" parent="rtX21FW4LfnfoEYosthL-24" vertex="1">
          <mxGeometry y="90" width="180" height="30" as="geometry" />
        </mxCell>
        <mxCell id="rtX21FW4LfnfoEYosthL-32" value="" style="shape=partialRectangle;connectable=0;fillColor=none;top=0;left=0;bottom=0;right=0;editable=1;overflow=hidden;" parent="rtX21FW4LfnfoEYosthL-31" vertex="1">
          <mxGeometry width="30" height="30" as="geometry">
            <mxRectangle width="30" height="30" as="alternateBounds" />
          </mxGeometry>
        </mxCell>
        <mxCell id="rtX21FW4LfnfoEYosthL-33" value="" style="shape=partialRectangle;connectable=0;fillColor=none;top=0;left=0;bottom=0;right=0;align=left;spacingLeft=6;overflow=hidden;" parent="rtX21FW4LfnfoEYosthL-31" vertex="1">
          <mxGeometry x="30" width="150" height="30" as="geometry">
            <mxRectangle width="150" height="30" as="alternateBounds" />
          </mxGeometry>
        </mxCell>
        <mxCell id="rtX21FW4LfnfoEYosthL-34" value="" style="shape=tableRow;horizontal=0;startSize=0;swimlaneHead=0;swimlaneBody=0;fillColor=none;collapsible=0;dropTarget=0;points=[[0,0.5],[1,0.5]];portConstraint=eastwest;top=0;left=0;right=0;bottom=0;" parent="rtX21FW4LfnfoEYosthL-24" vertex="1">
          <mxGeometry y="120" width="180" height="20" as="geometry" />
        </mxCell>
        <mxCell id="rtX21FW4LfnfoEYosthL-35" value="" style="shape=partialRectangle;connectable=0;fillColor=none;top=0;left=0;bottom=0;right=0;editable=1;overflow=hidden;" parent="rtX21FW4LfnfoEYosthL-34" vertex="1">
          <mxGeometry width="30" height="20" as="geometry">
            <mxRectangle width="30" height="20" as="alternateBounds" />
          </mxGeometry>
        </mxCell>
        <mxCell id="rtX21FW4LfnfoEYosthL-36" value="" style="shape=partialRectangle;connectable=0;fillColor=none;top=0;left=0;bottom=0;right=0;align=left;spacingLeft=6;overflow=hidden;" parent="rtX21FW4LfnfoEYosthL-34" vertex="1">
          <mxGeometry x="30" width="150" height="20" as="geometry">
            <mxRectangle width="150" height="20" as="alternateBounds" />
          </mxGeometry>
        </mxCell>
        <mxCell id="rtX21FW4LfnfoEYosthL-37" value="PartnerStatus" style="shape=table;startSize=30;container=1;collapsible=1;childLayout=tableLayout;fixedRows=1;rowLines=0;fontStyle=1;align=center;resizeLast=1;" parent="1" vertex="1">
          <mxGeometry x="570" y="50" width="220" height="140" as="geometry" />
        </mxCell>
        <mxCell id="rtX21FW4LfnfoEYosthL-38" value="" style="shape=tableRow;horizontal=0;startSize=0;swimlaneHead=0;swimlaneBody=0;fillColor=none;collapsible=0;dropTarget=0;points=[[0,0.5],[1,0.5]];portConstraint=eastwest;top=0;left=0;right=0;bottom=1;" parent="rtX21FW4LfnfoEYosthL-37" vertex="1">
          <mxGeometry y="30" width="220" height="30" as="geometry" />
        </mxCell>
        <mxCell id="rtX21FW4LfnfoEYosthL-39" value="PK" style="shape=partialRectangle;connectable=0;fillColor=none;top=0;left=0;bottom=0;right=0;fontStyle=1;overflow=hidden;" parent="rtX21FW4LfnfoEYosthL-38" vertex="1">
          <mxGeometry width="30" height="30" as="geometry">
            <mxRectangle width="30" height="30" as="alternateBounds" />
          </mxGeometry>
        </mxCell>
        <mxCell id="rtX21FW4LfnfoEYosthL-40" value="StatusID" style="shape=partialRectangle;connectable=0;fillColor=none;top=0;left=0;bottom=0;right=0;align=left;spacingLeft=6;fontStyle=5;overflow=hidden;" parent="rtX21FW4LfnfoEYosthL-38" vertex="1">
          <mxGeometry x="30" width="190" height="30" as="geometry">
            <mxRectangle width="190" height="30" as="alternateBounds" />
          </mxGeometry>
        </mxCell>
        <mxCell id="rtX21FW4LfnfoEYosthL-41" value="" style="shape=tableRow;horizontal=0;startSize=0;swimlaneHead=0;swimlaneBody=0;fillColor=none;collapsible=0;dropTarget=0;points=[[0,0.5],[1,0.5]];portConstraint=eastwest;top=0;left=0;right=0;bottom=0;" parent="rtX21FW4LfnfoEYosthL-37" vertex="1">
          <mxGeometry y="60" width="220" height="30" as="geometry" />
        </mxCell>
        <mxCell id="rtX21FW4LfnfoEYosthL-42" value="" style="shape=partialRectangle;connectable=0;fillColor=none;top=0;left=0;bottom=0;right=0;editable=1;overflow=hidden;" parent="rtX21FW4LfnfoEYosthL-41" vertex="1">
          <mxGeometry width="30" height="30" as="geometry">
            <mxRectangle width="30" height="30" as="alternateBounds" />
          </mxGeometry>
        </mxCell>
        <mxCell id="rtX21FW4LfnfoEYosthL-43" value="Name (Active/Retired/Withdraw)" style="shape=partialRectangle;connectable=0;fillColor=none;top=0;left=0;bottom=0;right=0;align=left;spacingLeft=6;overflow=hidden;" parent="rtX21FW4LfnfoEYosthL-41" vertex="1">
          <mxGeometry x="30" width="190" height="30" as="geometry">
            <mxRectangle width="190" height="30" as="alternateBounds" />
          </mxGeometry>
        </mxCell>
        <mxCell id="rtX21FW4LfnfoEYosthL-44" value="" style="shape=tableRow;horizontal=0;startSize=0;swimlaneHead=0;swimlaneBody=0;fillColor=none;collapsible=0;dropTarget=0;points=[[0,0.5],[1,0.5]];portConstraint=eastwest;top=0;left=0;right=0;bottom=0;" parent="rtX21FW4LfnfoEYosthL-37" vertex="1">
          <mxGeometry y="90" width="220" height="30" as="geometry" />
        </mxCell>
        <mxCell id="rtX21FW4LfnfoEYosthL-45" value="" style="shape=partialRectangle;connectable=0;fillColor=none;top=0;left=0;bottom=0;right=0;editable=1;overflow=hidden;" parent="rtX21FW4LfnfoEYosthL-44" vertex="1">
          <mxGeometry width="30" height="30" as="geometry">
            <mxRectangle width="30" height="30" as="alternateBounds" />
          </mxGeometry>
        </mxCell>
        <mxCell id="rtX21FW4LfnfoEYosthL-46" value="" style="shape=partialRectangle;connectable=0;fillColor=none;top=0;left=0;bottom=0;right=0;align=left;spacingLeft=6;overflow=hidden;" parent="rtX21FW4LfnfoEYosthL-44" vertex="1">
          <mxGeometry x="30" width="190" height="30" as="geometry">
            <mxRectangle width="190" height="30" as="alternateBounds" />
          </mxGeometry>
        </mxCell>
        <mxCell id="rtX21FW4LfnfoEYosthL-47" value="" style="shape=tableRow;horizontal=0;startSize=0;swimlaneHead=0;swimlaneBody=0;fillColor=none;collapsible=0;dropTarget=0;points=[[0,0.5],[1,0.5]];portConstraint=eastwest;top=0;left=0;right=0;bottom=0;" parent="rtX21FW4LfnfoEYosthL-37" vertex="1">
          <mxGeometry y="120" width="220" height="20" as="geometry" />
        </mxCell>
        <mxCell id="rtX21FW4LfnfoEYosthL-48" value="" style="shape=partialRectangle;connectable=0;fillColor=none;top=0;left=0;bottom=0;right=0;editable=1;overflow=hidden;" parent="rtX21FW4LfnfoEYosthL-47" vertex="1">
          <mxGeometry width="30" height="20" as="geometry">
            <mxRectangle width="30" height="20" as="alternateBounds" />
          </mxGeometry>
        </mxCell>
        <mxCell id="rtX21FW4LfnfoEYosthL-49" value="" style="shape=partialRectangle;connectable=0;fillColor=none;top=0;left=0;bottom=0;right=0;align=left;spacingLeft=6;overflow=hidden;" parent="rtX21FW4LfnfoEYosthL-47" vertex="1">
          <mxGeometry x="30" width="190" height="20" as="geometry">
            <mxRectangle width="190" height="20" as="alternateBounds" />
          </mxGeometry>
        </mxCell>
        <mxCell id="rtX21FW4LfnfoEYosthL-67" value="" style="shape=tableRow;horizontal=0;startSize=0;swimlaneHead=0;swimlaneBody=0;fillColor=none;collapsible=0;dropTarget=0;points=[[0,0.5],[1,0.5]];portConstraint=eastwest;top=0;left=0;right=0;bottom=0;" parent="1" vertex="1">
          <mxGeometry x="40" y="360" width="260" height="30" as="geometry" />
        </mxCell>
        <mxCell id="rtX21FW4LfnfoEYosthL-70" value="" style="shape=tableRow;horizontal=0;startSize=0;swimlaneHead=0;swimlaneBody=0;fillColor=none;collapsible=0;dropTarget=0;points=[[0,0.5],[1,0.5]];portConstraint=eastwest;top=0;left=0;right=0;bottom=0;" parent="1" vertex="1">
          <mxGeometry x="40" y="390" width="260" height="30" as="geometry" />
        </mxCell>
        <mxCell id="rtX21FW4LfnfoEYosthL-71" value="" style="shape=partialRectangle;connectable=0;fillColor=none;top=0;left=0;bottom=0;right=0;editable=1;overflow=hidden;" parent="rtX21FW4LfnfoEYosthL-70" vertex="1">
          <mxGeometry y="30" width="30" height="30" as="geometry">
            <mxRectangle width="30" height="30" as="alternateBounds" />
          </mxGeometry>
        </mxCell>
        <mxCell id="rtX21FW4LfnfoEYosthL-73" value="" style="shape=tableRow;horizontal=0;startSize=0;swimlaneHead=0;swimlaneBody=0;fillColor=none;collapsible=0;dropTarget=0;points=[[0,0.5],[1,0.5]];portConstraint=eastwest;top=0;left=0;right=0;bottom=0;" parent="1" vertex="1">
          <mxGeometry x="40" y="420" width="260" height="130" as="geometry" />
        </mxCell>
        <mxCell id="rtX21FW4LfnfoEYosthL-74" value="" style="shape=partialRectangle;connectable=0;fillColor=none;top=0;left=0;bottom=0;right=0;editable=1;overflow=hidden;" parent="rtX21FW4LfnfoEYosthL-73" vertex="1">
          <mxGeometry y="30" width="30" height="130" as="geometry">
            <mxRectangle width="30" height="130" as="alternateBounds" />
          </mxGeometry>
        </mxCell>
        <mxCell id="rtX21FW4LfnfoEYosthL-80" value="Address" style="shape=table;startSize=30;container=1;collapsible=1;childLayout=tableLayout;fixedRows=1;rowLines=0;fontStyle=1;align=center;resizeLast=1;" parent="1" vertex="1">
          <mxGeometry x="40" y="500" width="180" height="330" as="geometry" />
        </mxCell>
        <mxCell id="rtX21FW4LfnfoEYosthL-81" value="" style="shape=tableRow;horizontal=0;startSize=0;swimlaneHead=0;swimlaneBody=0;fillColor=none;collapsible=0;dropTarget=0;points=[[0,0.5],[1,0.5]];portConstraint=eastwest;top=0;left=0;right=0;bottom=1;" parent="rtX21FW4LfnfoEYosthL-80" vertex="1">
          <mxGeometry y="30" width="180" height="30" as="geometry" />
        </mxCell>
        <mxCell id="rtX21FW4LfnfoEYosthL-82" value="PK" style="shape=partialRectangle;connectable=0;fillColor=none;top=0;left=0;bottom=0;right=0;fontStyle=1;overflow=hidden;" parent="rtX21FW4LfnfoEYosthL-81" vertex="1">
          <mxGeometry width="30" height="30" as="geometry">
            <mxRectangle width="30" height="30" as="alternateBounds" />
          </mxGeometry>
        </mxCell>
        <mxCell id="rtX21FW4LfnfoEYosthL-83" value="AddressID" style="shape=partialRectangle;connectable=0;fillColor=none;top=0;left=0;bottom=0;right=0;align=left;spacingLeft=6;fontStyle=5;overflow=hidden;" parent="rtX21FW4LfnfoEYosthL-81" vertex="1">
          <mxGeometry x="30" width="150" height="30" as="geometry">
            <mxRectangle width="150" height="30" as="alternateBounds" />
          </mxGeometry>
        </mxCell>
        <mxCell id="rtX21FW4LfnfoEYosthL-84" value="" style="shape=tableRow;horizontal=0;startSize=0;swimlaneHead=0;swimlaneBody=0;fillColor=none;collapsible=0;dropTarget=0;points=[[0,0.5],[1,0.5]];portConstraint=eastwest;top=0;left=0;right=0;bottom=0;" parent="rtX21FW4LfnfoEYosthL-80" vertex="1">
          <mxGeometry y="60" width="180" height="30" as="geometry" />
        </mxCell>
        <mxCell id="rtX21FW4LfnfoEYosthL-85" value="" style="shape=partialRectangle;connectable=0;fillColor=none;top=0;left=0;bottom=0;right=0;editable=1;overflow=hidden;" parent="rtX21FW4LfnfoEYosthL-84" vertex="1">
          <mxGeometry width="30" height="30" as="geometry">
            <mxRectangle width="30" height="30" as="alternateBounds" />
          </mxGeometry>
        </mxCell>
        <mxCell id="rtX21FW4LfnfoEYosthL-86" value="Number" style="shape=partialRectangle;connectable=0;fillColor=none;top=0;left=0;bottom=0;right=0;align=left;spacingLeft=6;overflow=hidden;" parent="rtX21FW4LfnfoEYosthL-84" vertex="1">
          <mxGeometry x="30" width="150" height="30" as="geometry">
            <mxRectangle width="150" height="30" as="alternateBounds" />
          </mxGeometry>
        </mxCell>
        <mxCell id="rtX21FW4LfnfoEYosthL-87" value="" style="shape=tableRow;horizontal=0;startSize=0;swimlaneHead=0;swimlaneBody=0;fillColor=none;collapsible=0;dropTarget=0;points=[[0,0.5],[1,0.5]];portConstraint=eastwest;top=0;left=0;right=0;bottom=0;" parent="rtX21FW4LfnfoEYosthL-80" vertex="1">
          <mxGeometry y="90" width="180" height="240" as="geometry" />
        </mxCell>
        <mxCell id="rtX21FW4LfnfoEYosthL-88" value="" style="shape=partialRectangle;connectable=0;fillColor=none;top=0;left=0;bottom=0;right=0;editable=1;overflow=hidden;" parent="rtX21FW4LfnfoEYosthL-87" vertex="1">
          <mxGeometry width="30" height="240" as="geometry">
            <mxRectangle width="30" height="240" as="alternateBounds" />
          </mxGeometry>
        </mxCell>
        <mxCell id="rtX21FW4LfnfoEYosthL-89" value="" style="shape=partialRectangle;connectable=0;fillColor=none;top=0;left=0;bottom=0;right=0;align=left;spacingLeft=6;overflow=hidden;" parent="rtX21FW4LfnfoEYosthL-87" vertex="1">
          <mxGeometry x="30" width="150" height="240" as="geometry">
            <mxRectangle width="150" height="240" as="alternateBounds" />
          </mxGeometry>
        </mxCell>
        <mxCell id="rtX21FW4LfnfoEYosthL-93" value="Street" style="shape=partialRectangle;connectable=0;fillColor=none;top=0;left=0;bottom=0;right=0;align=left;spacingLeft=6;overflow=hidden;" parent="1" vertex="1">
          <mxGeometry x="70" y="590" width="150" height="30" as="geometry">
            <mxRectangle width="150" height="30" as="alternateBounds" />
          </mxGeometry>
        </mxCell>
        <mxCell id="rtX21FW4LfnfoEYosthL-94" value="City" style="shape=partialRectangle;connectable=0;fillColor=none;top=0;left=0;bottom=0;right=0;align=left;spacingLeft=6;overflow=hidden;" parent="1" vertex="1">
          <mxGeometry x="70" y="620" width="150" height="30" as="geometry">
            <mxRectangle width="150" height="30" as="alternateBounds" />
          </mxGeometry>
        </mxCell>
        <mxCell id="rtX21FW4LfnfoEYosthL-95" value="State" style="shape=partialRectangle;connectable=0;fillColor=none;top=0;left=0;bottom=0;right=0;align=left;spacingLeft=6;overflow=hidden;" parent="1" vertex="1">
          <mxGeometry x="70" y="680" width="150" height="30" as="geometry">
            <mxRectangle width="150" height="30" as="alternateBounds" />
          </mxGeometry>
        </mxCell>
        <mxCell id="rtX21FW4LfnfoEYosthL-96" value="Zip" style="shape=partialRectangle;connectable=0;fillColor=none;top=0;left=0;bottom=0;right=0;align=left;spacingLeft=6;overflow=hidden;" parent="1" vertex="1">
          <mxGeometry x="70" y="650" width="150" height="30" as="geometry">
            <mxRectangle width="150" height="30" as="alternateBounds" />
          </mxGeometry>
        </mxCell>
        <mxCell id="rtX21FW4LfnfoEYosthL-97" value="Country" style="shape=partialRectangle;connectable=0;fillColor=none;top=0;left=0;bottom=0;right=0;align=left;spacingLeft=6;overflow=hidden;" parent="1" vertex="1">
          <mxGeometry x="70" y="710" width="150" height="30" as="geometry">
            <mxRectangle width="150" height="30" as="alternateBounds" />
          </mxGeometry>
        </mxCell>
        <mxCell id="rtX21FW4LfnfoEYosthL-98" value="Active" style="shape=partialRectangle;connectable=0;fillColor=none;top=0;left=0;bottom=0;right=0;align=left;spacingLeft=6;overflow=hidden;" parent="1" vertex="1">
          <mxGeometry x="70" y="740" width="150" height="30" as="geometry">
            <mxRectangle width="150" height="30" as="alternateBounds" />
          </mxGeometry>
        </mxCell>
        <mxCell id="rtX21FW4LfnfoEYosthL-99" value="Email" style="shape=table;startSize=30;container=1;collapsible=1;childLayout=tableLayout;fixedRows=1;rowLines=0;fontStyle=0;align=center;resizeLast=1;" parent="1" vertex="1">
          <mxGeometry x="335" y="220" width="180" height="150" as="geometry" />
        </mxCell>
        <mxCell id="rtX21FW4LfnfoEYosthL-100" value="" style="shape=tableRow;horizontal=0;startSize=0;swimlaneHead=0;swimlaneBody=0;fillColor=none;collapsible=0;dropTarget=0;points=[[0,0.5],[1,0.5]];portConstraint=eastwest;top=0;left=0;right=0;bottom=1;" parent="rtX21FW4LfnfoEYosthL-99" vertex="1">
          <mxGeometry y="30" width="180" height="30" as="geometry" />
        </mxCell>
        <mxCell id="rtX21FW4LfnfoEYosthL-101" value="PK" style="shape=partialRectangle;connectable=0;fillColor=none;top=0;left=0;bottom=0;right=0;fontStyle=1;overflow=hidden;" parent="rtX21FW4LfnfoEYosthL-100" vertex="1">
          <mxGeometry width="30" height="30" as="geometry">
            <mxRectangle width="30" height="30" as="alternateBounds" />
          </mxGeometry>
        </mxCell>
        <mxCell id="rtX21FW4LfnfoEYosthL-102" value="EmailID" style="shape=partialRectangle;connectable=0;fillColor=none;top=0;left=0;bottom=0;right=0;align=left;spacingLeft=6;fontStyle=5;overflow=hidden;" parent="rtX21FW4LfnfoEYosthL-100" vertex="1">
          <mxGeometry x="30" width="150" height="30" as="geometry">
            <mxRectangle width="150" height="30" as="alternateBounds" />
          </mxGeometry>
        </mxCell>
        <mxCell id="rtX21FW4LfnfoEYosthL-103" value="" style="shape=tableRow;horizontal=0;startSize=0;swimlaneHead=0;swimlaneBody=0;fillColor=none;collapsible=0;dropTarget=0;points=[[0,0.5],[1,0.5]];portConstraint=eastwest;top=0;left=0;right=0;bottom=0;" parent="rtX21FW4LfnfoEYosthL-99" vertex="1">
          <mxGeometry y="60" width="180" height="30" as="geometry" />
        </mxCell>
        <mxCell id="rtX21FW4LfnfoEYosthL-104" value="" style="shape=partialRectangle;connectable=0;fillColor=none;top=0;left=0;bottom=0;right=0;editable=1;overflow=hidden;" parent="rtX21FW4LfnfoEYosthL-103" vertex="1">
          <mxGeometry width="30" height="30" as="geometry">
            <mxRectangle width="30" height="30" as="alternateBounds" />
          </mxGeometry>
        </mxCell>
        <mxCell id="rtX21FW4LfnfoEYosthL-105" value="Email" style="shape=partialRectangle;connectable=0;fillColor=none;top=0;left=0;bottom=0;right=0;align=left;spacingLeft=6;overflow=hidden;" parent="rtX21FW4LfnfoEYosthL-103" vertex="1">
          <mxGeometry x="30" width="150" height="30" as="geometry">
            <mxRectangle width="150" height="30" as="alternateBounds" />
          </mxGeometry>
        </mxCell>
        <mxCell id="rtX21FW4LfnfoEYosthL-106" value="" style="shape=tableRow;horizontal=0;startSize=0;swimlaneHead=0;swimlaneBody=0;fillColor=none;collapsible=0;dropTarget=0;points=[[0,0.5],[1,0.5]];portConstraint=eastwest;top=0;left=0;right=0;bottom=0;" parent="rtX21FW4LfnfoEYosthL-99" vertex="1">
          <mxGeometry y="90" width="180" height="40" as="geometry" />
        </mxCell>
        <mxCell id="rtX21FW4LfnfoEYosthL-107" value="" style="shape=partialRectangle;connectable=0;fillColor=none;top=0;left=0;bottom=0;right=0;editable=1;overflow=hidden;" parent="rtX21FW4LfnfoEYosthL-106" vertex="1">
          <mxGeometry width="30" height="40" as="geometry">
            <mxRectangle width="30" height="40" as="alternateBounds" />
          </mxGeometry>
        </mxCell>
        <mxCell id="rtX21FW4LfnfoEYosthL-108" value="" style="shape=partialRectangle;connectable=0;fillColor=none;top=0;left=0;bottom=0;right=0;align=left;spacingLeft=6;overflow=hidden;" parent="rtX21FW4LfnfoEYosthL-106" vertex="1">
          <mxGeometry x="30" width="150" height="40" as="geometry">
            <mxRectangle width="150" height="40" as="alternateBounds" />
          </mxGeometry>
        </mxCell>
        <mxCell id="rtX21FW4LfnfoEYosthL-109" value="" style="shape=tableRow;horizontal=0;startSize=0;swimlaneHead=0;swimlaneBody=0;fillColor=none;collapsible=0;dropTarget=0;points=[[0,0.5],[1,0.5]];portConstraint=eastwest;top=0;left=0;right=0;bottom=0;" parent="rtX21FW4LfnfoEYosthL-99" vertex="1">
          <mxGeometry y="130" width="180" height="20" as="geometry" />
        </mxCell>
        <mxCell id="rtX21FW4LfnfoEYosthL-110" value="" style="shape=partialRectangle;connectable=0;fillColor=none;top=0;left=0;bottom=0;right=0;editable=1;overflow=hidden;" parent="rtX21FW4LfnfoEYosthL-109" vertex="1">
          <mxGeometry width="30" height="20" as="geometry">
            <mxRectangle width="30" height="20" as="alternateBounds" />
          </mxGeometry>
        </mxCell>
        <mxCell id="rtX21FW4LfnfoEYosthL-111" value="" style="shape=partialRectangle;connectable=0;fillColor=none;top=0;left=0;bottom=0;right=0;align=left;spacingLeft=6;overflow=hidden;" parent="rtX21FW4LfnfoEYosthL-109" vertex="1">
          <mxGeometry x="30" width="150" height="20" as="geometry">
            <mxRectangle width="150" height="20" as="alternateBounds" />
          </mxGeometry>
        </mxCell>
        <mxCell id="rtX21FW4LfnfoEYosthL-112" value="Active" style="shape=partialRectangle;connectable=0;fillColor=none;top=0;left=0;bottom=0;right=0;align=left;spacingLeft=6;overflow=hidden;" parent="1" vertex="1">
          <mxGeometry x="365" y="310" width="150" height="30" as="geometry">
            <mxRectangle width="150" height="30" as="alternateBounds" />
          </mxGeometry>
        </mxCell>
        <mxCell id="rtX21FW4LfnfoEYosthL-114" value="EmailID" style="shape=partialRectangle;connectable=0;fillColor=none;top=0;left=0;bottom=0;right=0;align=left;spacingLeft=6;overflow=hidden;" parent="1" vertex="1">
          <mxGeometry x="70" y="290" width="150" height="30" as="geometry">
            <mxRectangle width="150" height="30" as="alternateBounds" />
          </mxGeometry>
        </mxCell>
        <mxCell id="iGJ6DjQzP0PMJxauO1Fa-1" value="NoteLog" style="shape=table;startSize=30;container=1;collapsible=1;childLayout=tableLayout;fixedRows=1;rowLines=0;fontStyle=1;align=center;resizeLast=1;" vertex="1" parent="1">
          <mxGeometry x="570" y="220" width="180" height="150" as="geometry" />
        </mxCell>
        <mxCell id="iGJ6DjQzP0PMJxauO1Fa-2" value="" style="shape=tableRow;horizontal=0;startSize=0;swimlaneHead=0;swimlaneBody=0;fillColor=none;collapsible=0;dropTarget=0;points=[[0,0.5],[1,0.5]];portConstraint=eastwest;top=0;left=0;right=0;bottom=1;" vertex="1" parent="iGJ6DjQzP0PMJxauO1Fa-1">
          <mxGeometry y="30" width="180" height="30" as="geometry" />
        </mxCell>
        <mxCell id="iGJ6DjQzP0PMJxauO1Fa-3" value="PK" style="shape=partialRectangle;connectable=0;fillColor=none;top=0;left=0;bottom=0;right=0;fontStyle=1;overflow=hidden;" vertex="1" parent="iGJ6DjQzP0PMJxauO1Fa-2">
          <mxGeometry width="30" height="30" as="geometry">
            <mxRectangle width="30" height="30" as="alternateBounds" />
          </mxGeometry>
        </mxCell>
        <mxCell id="iGJ6DjQzP0PMJxauO1Fa-4" value="NoteID" style="shape=partialRectangle;connectable=0;fillColor=none;top=0;left=0;bottom=0;right=0;align=left;spacingLeft=6;fontStyle=5;overflow=hidden;" vertex="1" parent="iGJ6DjQzP0PMJxauO1Fa-2">
          <mxGeometry x="30" width="150" height="30" as="geometry">
            <mxRectangle width="150" height="30" as="alternateBounds" />
          </mxGeometry>
        </mxCell>
        <mxCell id="iGJ6DjQzP0PMJxauO1Fa-5" value="" style="shape=tableRow;horizontal=0;startSize=0;swimlaneHead=0;swimlaneBody=0;fillColor=none;collapsible=0;dropTarget=0;points=[[0,0.5],[1,0.5]];portConstraint=eastwest;top=0;left=0;right=0;bottom=0;" vertex="1" parent="iGJ6DjQzP0PMJxauO1Fa-1">
          <mxGeometry y="60" width="180" height="30" as="geometry" />
        </mxCell>
        <mxCell id="iGJ6DjQzP0PMJxauO1Fa-6" value="" style="shape=partialRectangle;connectable=0;fillColor=none;top=0;left=0;bottom=0;right=0;editable=1;overflow=hidden;" vertex="1" parent="iGJ6DjQzP0PMJxauO1Fa-5">
          <mxGeometry width="30" height="30" as="geometry">
            <mxRectangle width="30" height="30" as="alternateBounds" />
          </mxGeometry>
        </mxCell>
        <mxCell id="iGJ6DjQzP0PMJxauO1Fa-7" value="Note" style="shape=partialRectangle;connectable=0;fillColor=none;top=0;left=0;bottom=0;right=0;align=left;spacingLeft=6;overflow=hidden;" vertex="1" parent="iGJ6DjQzP0PMJxauO1Fa-5">
          <mxGeometry x="30" width="150" height="30" as="geometry">
            <mxRectangle width="150" height="30" as="alternateBounds" />
          </mxGeometry>
        </mxCell>
        <mxCell id="iGJ6DjQzP0PMJxauO1Fa-8" value="" style="shape=tableRow;horizontal=0;startSize=0;swimlaneHead=0;swimlaneBody=0;fillColor=none;collapsible=0;dropTarget=0;points=[[0,0.5],[1,0.5]];portConstraint=eastwest;top=0;left=0;right=0;bottom=0;" vertex="1" parent="iGJ6DjQzP0PMJxauO1Fa-1">
          <mxGeometry y="90" width="180" height="30" as="geometry" />
        </mxCell>
        <mxCell id="iGJ6DjQzP0PMJxauO1Fa-9" value="" style="shape=partialRectangle;connectable=0;fillColor=none;top=0;left=0;bottom=0;right=0;editable=1;overflow=hidden;" vertex="1" parent="iGJ6DjQzP0PMJxauO1Fa-8">
          <mxGeometry width="30" height="30" as="geometry">
            <mxRectangle width="30" height="30" as="alternateBounds" />
          </mxGeometry>
        </mxCell>
        <mxCell id="iGJ6DjQzP0PMJxauO1Fa-10" value="" style="shape=partialRectangle;connectable=0;fillColor=none;top=0;left=0;bottom=0;right=0;align=left;spacingLeft=6;overflow=hidden;" vertex="1" parent="iGJ6DjQzP0PMJxauO1Fa-8">
          <mxGeometry x="30" width="150" height="30" as="geometry">
            <mxRectangle width="150" height="30" as="alternateBounds" />
          </mxGeometry>
        </mxCell>
        <mxCell id="iGJ6DjQzP0PMJxauO1Fa-11" value="" style="shape=tableRow;horizontal=0;startSize=0;swimlaneHead=0;swimlaneBody=0;fillColor=none;collapsible=0;dropTarget=0;points=[[0,0.5],[1,0.5]];portConstraint=eastwest;top=0;left=0;right=0;bottom=0;" vertex="1" parent="iGJ6DjQzP0PMJxauO1Fa-1">
          <mxGeometry y="120" width="180" height="30" as="geometry" />
        </mxCell>
        <mxCell id="iGJ6DjQzP0PMJxauO1Fa-12" value="" style="shape=partialRectangle;connectable=0;fillColor=none;top=0;left=0;bottom=0;right=0;editable=1;overflow=hidden;" vertex="1" parent="iGJ6DjQzP0PMJxauO1Fa-11">
          <mxGeometry width="30" height="30" as="geometry">
            <mxRectangle width="30" height="30" as="alternateBounds" />
          </mxGeometry>
        </mxCell>
        <mxCell id="iGJ6DjQzP0PMJxauO1Fa-13" value="" style="shape=partialRectangle;connectable=0;fillColor=none;top=0;left=0;bottom=0;right=0;align=left;spacingLeft=6;overflow=hidden;" vertex="1" parent="iGJ6DjQzP0PMJxauO1Fa-11">
          <mxGeometry x="30" width="150" height="30" as="geometry">
            <mxRectangle width="150" height="30" as="alternateBounds" />
          </mxGeometry>
        </mxCell>
        <mxCell id="iGJ6DjQzP0PMJxauO1Fa-14" value="User" style="shape=partialRectangle;connectable=0;fillColor=none;top=0;left=0;bottom=0;right=0;align=left;spacingLeft=6;overflow=hidden;" vertex="1" parent="1">
          <mxGeometry x="600" y="305" width="150" height="30" as="geometry">
            <mxRectangle width="150" height="30" as="alternateBounds" />
          </mxGeometry>
        </mxCell>
        <mxCell id="iGJ6DjQzP0PMJxauO1Fa-15" value="TimeStamp" style="shape=partialRectangle;connectable=0;fillColor=none;top=0;left=0;bottom=0;right=0;align=left;spacingLeft=6;overflow=hidden;" vertex="1" parent="1">
          <mxGeometry x="600" y="335" width="150" height="30" as="geometry">
            <mxRectangle width="150" height="30" as="alternateBounds" />
          </mxGeometry>
        </mxCell>
        <mxCell id="iGJ6DjQzP0PMJxauO1Fa-16" value="TimeStamp" style="shape=partialRectangle;connectable=0;fillColor=none;top=0;left=0;bottom=0;right=0;align=left;spacingLeft=6;overflow=hidden;" vertex="1" parent="1">
          <mxGeometry x="365" y="340" width="160" height="30" as="geometry">
            <mxRectangle width="150" height="30" as="alternateBounds" />
          </mxGeometry>
        </mxCell>
        <mxCell id="iGJ6DjQzP0PMJxauO1Fa-17" value="Active4Fund" style="shape=partialRectangle;connectable=0;fillColor=none;top=0;left=0;bottom=0;right=0;align=left;spacingLeft=6;overflow=hidden;" vertex="1" parent="1">
          <mxGeometry x="70" y="320" width="150" height="30" as="geometry">
            <mxRectangle width="150" height="30" as="alternateBounds" />
          </mxGeometry>
        </mxCell>
        <mxCell id="iGJ6DjQzP0PMJxauO1Fa-18" value="ModifiedBy" style="shape=partialRectangle;connectable=0;fillColor=none;top=0;left=0;bottom=0;right=0;align=left;spacingLeft=6;overflow=hidden;" vertex="1" parent="1">
          <mxGeometry x="70" y="385" width="150" height="30" as="geometry">
            <mxRectangle width="150" height="30" as="alternateBounds" />
          </mxGeometry>
        </mxCell>
        <mxCell id="iGJ6DjQzP0PMJxauO1Fa-19" value="ModifiedDate" style="shape=partialRectangle;connectable=0;fillColor=none;top=0;left=0;bottom=0;right=0;align=left;spacingLeft=6;overflow=hidden;" vertex="1" parent="1">
          <mxGeometry x="70" y="415" width="150" height="30" as="geometry">
            <mxRectangle width="150" height="30" as="alternateBounds" />
          </mxGeometry>
        </mxCell>
        <mxCell id="iGJ6DjQzP0PMJxauO1Fa-20" value="NoteID" style="shape=partialRectangle;connectable=0;fillColor=none;top=0;left=0;bottom=0;right=0;align=left;spacingLeft=6;overflow=hidden;" vertex="1" parent="1">
          <mxGeometry x="70" y="350" width="150" height="30" as="geometry">
            <mxRectangle width="150" height="30" as="alternateBounds" />
          </mxGeometry>
        </mxCell>
        <mxCell id="iGJ6DjQzP0PMJxauO1Fa-21" value="ModifiedBy" style="shape=partialRectangle;connectable=0;fillColor=none;top=0;left=0;bottom=0;right=0;align=left;spacingLeft=6;overflow=hidden;" vertex="1" parent="1">
          <mxGeometry x="70" y="770" width="150" height="30" as="geometry">
            <mxRectangle width="150" height="30" as="alternateBounds" />
          </mxGeometry>
        </mxCell>
        <mxCell id="iGJ6DjQzP0PMJxauO1Fa-22" value="ModifiedDate" style="shape=partialRectangle;connectable=0;fillColor=none;top=0;left=0;bottom=0;right=0;align=left;spacingLeft=6;overflow=hidden;" vertex="1" parent="1">
          <mxGeometry x="70" y="800" width="150" height="30" as="geometry">
            <mxRectangle width="150" height="30" as="alternateBounds" />
          </mxGeometry>
        </mxCell>
        <mxCell id="iGJ6DjQzP0PMJxauO1Fa-60" value="Fund" style="shape=table;startSize=30;container=1;collapsible=1;childLayout=tableLayout;fixedRows=1;rowLines=0;fontStyle=1;align=center;resizeLast=1;" vertex="1" parent="1">
          <mxGeometry x="40" y="880" width="170" height="360" as="geometry" />
        </mxCell>
        <mxCell id="iGJ6DjQzP0PMJxauO1Fa-61" value="" style="shape=tableRow;horizontal=0;startSize=0;swimlaneHead=0;swimlaneBody=0;fillColor=none;collapsible=0;dropTarget=0;points=[[0,0.5],[1,0.5]];portConstraint=eastwest;top=0;left=0;right=0;bottom=1;" vertex="1" parent="iGJ6DjQzP0PMJxauO1Fa-60">
          <mxGeometry y="30" width="170" height="30" as="geometry" />
        </mxCell>
        <mxCell id="iGJ6DjQzP0PMJxauO1Fa-62" value="PK" style="shape=partialRectangle;connectable=0;fillColor=none;top=0;left=0;bottom=0;right=0;fontStyle=1;overflow=hidden;" vertex="1" parent="iGJ6DjQzP0PMJxauO1Fa-61">
          <mxGeometry width="30" height="30" as="geometry">
            <mxRectangle width="30" height="30" as="alternateBounds" />
          </mxGeometry>
        </mxCell>
        <mxCell id="iGJ6DjQzP0PMJxauO1Fa-63" value="FundID" style="shape=partialRectangle;connectable=0;fillColor=none;top=0;left=0;bottom=0;right=0;align=left;spacingLeft=6;fontStyle=5;overflow=hidden;" vertex="1" parent="iGJ6DjQzP0PMJxauO1Fa-61">
          <mxGeometry x="30" width="140" height="30" as="geometry">
            <mxRectangle width="140" height="30" as="alternateBounds" />
          </mxGeometry>
        </mxCell>
        <mxCell id="iGJ6DjQzP0PMJxauO1Fa-64" value="" style="shape=tableRow;horizontal=0;startSize=0;swimlaneHead=0;swimlaneBody=0;fillColor=none;collapsible=0;dropTarget=0;points=[[0,0.5],[1,0.5]];portConstraint=eastwest;top=0;left=0;right=0;bottom=0;" vertex="1" parent="iGJ6DjQzP0PMJxauO1Fa-60">
          <mxGeometry y="60" width="170" height="30" as="geometry" />
        </mxCell>
        <mxCell id="iGJ6DjQzP0PMJxauO1Fa-65" value="" style="shape=partialRectangle;connectable=0;fillColor=none;top=0;left=0;bottom=0;right=0;editable=1;overflow=hidden;" vertex="1" parent="iGJ6DjQzP0PMJxauO1Fa-64">
          <mxGeometry width="30" height="30" as="geometry">
            <mxRectangle width="30" height="30" as="alternateBounds" />
          </mxGeometry>
        </mxCell>
        <mxCell id="iGJ6DjQzP0PMJxauO1Fa-66" value="FundNum" style="shape=partialRectangle;connectable=0;fillColor=none;top=0;left=0;bottom=0;right=0;align=left;spacingLeft=6;overflow=hidden;" vertex="1" parent="iGJ6DjQzP0PMJxauO1Fa-64">
          <mxGeometry x="30" width="140" height="30" as="geometry">
            <mxRectangle width="140" height="30" as="alternateBounds" />
          </mxGeometry>
        </mxCell>
        <mxCell id="iGJ6DjQzP0PMJxauO1Fa-67" value="" style="shape=tableRow;horizontal=0;startSize=0;swimlaneHead=0;swimlaneBody=0;fillColor=none;collapsible=0;dropTarget=0;points=[[0,0.5],[1,0.5]];portConstraint=eastwest;top=0;left=0;right=0;bottom=0;" vertex="1" parent="iGJ6DjQzP0PMJxauO1Fa-60">
          <mxGeometry y="90" width="170" height="30" as="geometry" />
        </mxCell>
        <mxCell id="iGJ6DjQzP0PMJxauO1Fa-68" value="" style="shape=partialRectangle;connectable=0;fillColor=none;top=0;left=0;bottom=0;right=0;editable=1;overflow=hidden;" vertex="1" parent="iGJ6DjQzP0PMJxauO1Fa-67">
          <mxGeometry width="30" height="30" as="geometry">
            <mxRectangle width="30" height="30" as="alternateBounds" />
          </mxGeometry>
        </mxCell>
        <mxCell id="iGJ6DjQzP0PMJxauO1Fa-69" value="Name" style="shape=partialRectangle;connectable=0;fillColor=none;top=0;left=0;bottom=0;right=0;align=left;spacingLeft=6;overflow=hidden;" vertex="1" parent="iGJ6DjQzP0PMJxauO1Fa-67">
          <mxGeometry x="30" width="140" height="30" as="geometry">
            <mxRectangle width="140" height="30" as="alternateBounds" />
          </mxGeometry>
        </mxCell>
        <mxCell id="iGJ6DjQzP0PMJxauO1Fa-70" value="" style="shape=tableRow;horizontal=0;startSize=0;swimlaneHead=0;swimlaneBody=0;fillColor=none;collapsible=0;dropTarget=0;points=[[0,0.5],[1,0.5]];portConstraint=eastwest;top=0;left=0;right=0;bottom=0;" vertex="1" parent="iGJ6DjQzP0PMJxauO1Fa-60">
          <mxGeometry y="120" width="170" height="240" as="geometry" />
        </mxCell>
        <mxCell id="iGJ6DjQzP0PMJxauO1Fa-71" value="" style="shape=partialRectangle;connectable=0;fillColor=none;top=0;left=0;bottom=0;right=0;editable=1;overflow=hidden;" vertex="1" parent="iGJ6DjQzP0PMJxauO1Fa-70">
          <mxGeometry width="30" height="240" as="geometry">
            <mxRectangle width="30" height="240" as="alternateBounds" />
          </mxGeometry>
        </mxCell>
        <mxCell id="iGJ6DjQzP0PMJxauO1Fa-72" value="" style="shape=partialRectangle;connectable=0;fillColor=none;top=0;left=0;bottom=0;right=0;align=left;spacingLeft=6;overflow=hidden;" vertex="1" parent="iGJ6DjQzP0PMJxauO1Fa-70">
          <mxGeometry x="30" width="140" height="240" as="geometry">
            <mxRectangle width="140" height="240" as="alternateBounds" />
          </mxGeometry>
        </mxCell>
        <mxCell id="iGJ6DjQzP0PMJxauO1Fa-73" value="CategoryID    " style="shape=partialRectangle;connectable=0;fillColor=none;top=0;left=0;bottom=0;right=0;align=left;spacingLeft=6;overflow=hidden;" vertex="1" parent="1">
          <mxGeometry x="70" y="1000" width="150" height="30" as="geometry">
            <mxRectangle width="150" height="30" as="alternateBounds" />
          </mxGeometry>
        </mxCell>
        <mxCell id="iGJ6DjQzP0PMJxauO1Fa-74" value="EndDate" style="shape=partialRectangle;connectable=0;fillColor=none;top=0;left=0;bottom=0;right=0;align=left;spacingLeft=6;overflow=hidden;" vertex="1" parent="1">
          <mxGeometry x="70" y="1060" width="150" height="30" as="geometry">
            <mxRectangle width="150" height="30" as="alternateBounds" />
          </mxGeometry>
        </mxCell>
        <mxCell id="iGJ6DjQzP0PMJxauO1Fa-75" value="AddressID" style="shape=partialRectangle;connectable=0;fillColor=none;top=0;left=0;bottom=0;right=0;align=left;spacingLeft=6;overflow=hidden;" vertex="1" parent="1">
          <mxGeometry x="70" y="1090" width="150" height="30" as="geometry">
            <mxRectangle width="150" height="30" as="alternateBounds" />
          </mxGeometry>
        </mxCell>
        <mxCell id="iGJ6DjQzP0PMJxauO1Fa-77" value="" style="shape=tableRow;horizontal=0;startSize=0;swimlaneHead=0;swimlaneBody=0;fillColor=none;collapsible=0;dropTarget=0;points=[[0,0.5],[1,0.5]];portConstraint=eastwest;top=0;left=0;right=0;bottom=0;" vertex="1" parent="1">
          <mxGeometry x="335" y="760" width="260" height="30" as="geometry" />
        </mxCell>
        <mxCell id="iGJ6DjQzP0PMJxauO1Fa-78" value="" style="shape=tableRow;horizontal=0;startSize=0;swimlaneHead=0;swimlaneBody=0;fillColor=none;collapsible=0;dropTarget=0;points=[[0,0.5],[1,0.5]];portConstraint=eastwest;top=0;left=0;right=0;bottom=0;" vertex="1" parent="1">
          <mxGeometry x="335" y="790" width="260" height="30" as="geometry" />
        </mxCell>
        <mxCell id="iGJ6DjQzP0PMJxauO1Fa-79" value="" style="shape=partialRectangle;connectable=0;fillColor=none;top=0;left=0;bottom=0;right=0;editable=1;overflow=hidden;" vertex="1" parent="iGJ6DjQzP0PMJxauO1Fa-78">
          <mxGeometry y="30" width="30" height="30" as="geometry">
            <mxRectangle width="30" height="30" as="alternateBounds" />
          </mxGeometry>
        </mxCell>
        <mxCell id="iGJ6DjQzP0PMJxauO1Fa-80" value="EmailID" style="shape=partialRectangle;connectable=0;fillColor=none;top=0;left=0;bottom=0;right=0;align=left;spacingLeft=6;overflow=hidden;" vertex="1" parent="1">
          <mxGeometry x="70" y="1120" width="150" height="30" as="geometry">
            <mxRectangle width="150" height="30" as="alternateBounds" />
          </mxGeometry>
        </mxCell>
        <mxCell id="iGJ6DjQzP0PMJxauO1Fa-81" value="NoteID" style="shape=partialRectangle;connectable=0;fillColor=none;top=0;left=0;bottom=0;right=0;align=left;spacingLeft=6;overflow=hidden;" vertex="1" parent="1">
          <mxGeometry x="70" y="1150" width="150" height="30" as="geometry">
            <mxRectangle width="150" height="30" as="alternateBounds" />
          </mxGeometry>
        </mxCell>
        <mxCell id="iGJ6DjQzP0PMJxauO1Fa-82" value="ModifiedBy" style="shape=partialRectangle;connectable=0;fillColor=none;top=0;left=0;bottom=0;right=0;align=left;spacingLeft=6;overflow=hidden;" vertex="1" parent="1">
          <mxGeometry x="70" y="1180" width="150" height="30" as="geometry">
            <mxRectangle width="150" height="30" as="alternateBounds" />
          </mxGeometry>
        </mxCell>
        <mxCell id="iGJ6DjQzP0PMJxauO1Fa-83" value="ModifiedDate" style="shape=partialRectangle;connectable=0;fillColor=none;top=0;left=0;bottom=0;right=0;align=left;spacingLeft=6;overflow=hidden;" vertex="1" parent="1">
          <mxGeometry x="70" y="1210" width="150" height="30" as="geometry">
            <mxRectangle width="150" height="30" as="alternateBounds" />
          </mxGeometry>
        </mxCell>
        <mxCell id="iGJ6DjQzP0PMJxauO1Fa-85" value="StartDate" style="shape=partialRectangle;connectable=0;fillColor=none;top=0;left=0;bottom=0;right=0;align=left;spacingLeft=6;overflow=hidden;" vertex="1" parent="1">
          <mxGeometry x="70" y="1030" width="150" height="30" as="geometry">
            <mxRectangle width="150" height="30" as="alternateBounds" />
          </mxGeometry>
        </mxCell>
        <mxCell id="iGJ6DjQzP0PMJxauO1Fa-86" value="PartnerDraw" style="shape=table;startSize=30;container=1;collapsible=1;childLayout=tableLayout;fixedRows=1;rowLines=0;fontStyle=0;align=center;resizeLast=1;" vertex="1" parent="1">
          <mxGeometry x="335" y="445" width="180" height="150" as="geometry" />
        </mxCell>
        <mxCell id="iGJ6DjQzP0PMJxauO1Fa-87" value="" style="shape=tableRow;horizontal=0;startSize=0;swimlaneHead=0;swimlaneBody=0;fillColor=none;collapsible=0;dropTarget=0;points=[[0,0.5],[1,0.5]];portConstraint=eastwest;top=0;left=0;right=0;bottom=1;" vertex="1" parent="iGJ6DjQzP0PMJxauO1Fa-86">
          <mxGeometry y="30" width="180" height="30" as="geometry" />
        </mxCell>
        <mxCell id="iGJ6DjQzP0PMJxauO1Fa-88" value="PK" style="shape=partialRectangle;connectable=0;fillColor=none;top=0;left=0;bottom=0;right=0;fontStyle=1;overflow=hidden;" vertex="1" parent="iGJ6DjQzP0PMJxauO1Fa-87">
          <mxGeometry width="30" height="30" as="geometry">
            <mxRectangle width="30" height="30" as="alternateBounds" />
          </mxGeometry>
        </mxCell>
        <mxCell id="iGJ6DjQzP0PMJxauO1Fa-89" value="PartnerID" style="shape=partialRectangle;connectable=0;fillColor=none;top=0;left=0;bottom=0;right=0;align=left;spacingLeft=6;fontStyle=5;overflow=hidden;" vertex="1" parent="iGJ6DjQzP0PMJxauO1Fa-87">
          <mxGeometry x="30" width="150" height="30" as="geometry">
            <mxRectangle width="150" height="30" as="alternateBounds" />
          </mxGeometry>
        </mxCell>
        <mxCell id="iGJ6DjQzP0PMJxauO1Fa-90" value="" style="shape=tableRow;horizontal=0;startSize=0;swimlaneHead=0;swimlaneBody=0;fillColor=none;collapsible=0;dropTarget=0;points=[[0,0.5],[1,0.5]];portConstraint=eastwest;top=0;left=0;right=0;bottom=0;" vertex="1" parent="iGJ6DjQzP0PMJxauO1Fa-86">
          <mxGeometry y="60" width="180" height="30" as="geometry" />
        </mxCell>
        <mxCell id="iGJ6DjQzP0PMJxauO1Fa-91" value="" style="shape=partialRectangle;connectable=0;fillColor=none;top=0;left=0;bottom=0;right=0;editable=1;overflow=hidden;" vertex="1" parent="iGJ6DjQzP0PMJxauO1Fa-90">
          <mxGeometry width="30" height="30" as="geometry">
            <mxRectangle width="30" height="30" as="alternateBounds" />
          </mxGeometry>
        </mxCell>
        <mxCell id="iGJ6DjQzP0PMJxauO1Fa-92" value="DrawPeriod" style="shape=partialRectangle;connectable=0;fillColor=none;top=0;left=0;bottom=0;right=0;align=left;spacingLeft=6;overflow=hidden;" vertex="1" parent="iGJ6DjQzP0PMJxauO1Fa-90">
          <mxGeometry x="30" width="150" height="30" as="geometry">
            <mxRectangle width="150" height="30" as="alternateBounds" />
          </mxGeometry>
        </mxCell>
        <mxCell id="iGJ6DjQzP0PMJxauO1Fa-93" value="" style="shape=tableRow;horizontal=0;startSize=0;swimlaneHead=0;swimlaneBody=0;fillColor=none;collapsible=0;dropTarget=0;points=[[0,0.5],[1,0.5]];portConstraint=eastwest;top=0;left=0;right=0;bottom=0;" vertex="1" parent="iGJ6DjQzP0PMJxauO1Fa-86">
          <mxGeometry y="90" width="180" height="40" as="geometry" />
        </mxCell>
        <mxCell id="iGJ6DjQzP0PMJxauO1Fa-94" value="" style="shape=partialRectangle;connectable=0;fillColor=none;top=0;left=0;bottom=0;right=0;editable=1;overflow=hidden;" vertex="1" parent="iGJ6DjQzP0PMJxauO1Fa-93">
          <mxGeometry width="30" height="40" as="geometry">
            <mxRectangle width="30" height="40" as="alternateBounds" />
          </mxGeometry>
        </mxCell>
        <mxCell id="iGJ6DjQzP0PMJxauO1Fa-95" value="" style="shape=partialRectangle;connectable=0;fillColor=none;top=0;left=0;bottom=0;right=0;align=left;spacingLeft=6;overflow=hidden;" vertex="1" parent="iGJ6DjQzP0PMJxauO1Fa-93">
          <mxGeometry x="30" width="150" height="40" as="geometry">
            <mxRectangle width="150" height="40" as="alternateBounds" />
          </mxGeometry>
        </mxCell>
        <mxCell id="iGJ6DjQzP0PMJxauO1Fa-96" value="" style="shape=tableRow;horizontal=0;startSize=0;swimlaneHead=0;swimlaneBody=0;fillColor=none;collapsible=0;dropTarget=0;points=[[0,0.5],[1,0.5]];portConstraint=eastwest;top=0;left=0;right=0;bottom=0;" vertex="1" parent="iGJ6DjQzP0PMJxauO1Fa-86">
          <mxGeometry y="130" width="180" height="20" as="geometry" />
        </mxCell>
        <mxCell id="iGJ6DjQzP0PMJxauO1Fa-97" value="" style="shape=partialRectangle;connectable=0;fillColor=none;top=0;left=0;bottom=0;right=0;editable=1;overflow=hidden;" vertex="1" parent="iGJ6DjQzP0PMJxauO1Fa-96">
          <mxGeometry width="30" height="20" as="geometry">
            <mxRectangle width="30" height="20" as="alternateBounds" />
          </mxGeometry>
        </mxCell>
        <mxCell id="iGJ6DjQzP0PMJxauO1Fa-98" value="" style="shape=partialRectangle;connectable=0;fillColor=none;top=0;left=0;bottom=0;right=0;align=left;spacingLeft=6;overflow=hidden;" vertex="1" parent="iGJ6DjQzP0PMJxauO1Fa-96">
          <mxGeometry x="30" width="150" height="20" as="geometry">
            <mxRectangle width="150" height="20" as="alternateBounds" />
          </mxGeometry>
        </mxCell>
        <mxCell id="iGJ6DjQzP0PMJxauO1Fa-99" value="BankID" style="shape=partialRectangle;connectable=0;fillColor=none;top=0;left=0;bottom=0;right=0;align=left;spacingLeft=6;overflow=hidden;" vertex="1" parent="1">
          <mxGeometry x="365" y="535" width="150" height="30" as="geometry">
            <mxRectangle width="150" height="30" as="alternateBounds" />
          </mxGeometry>
        </mxCell>
        <mxCell id="iGJ6DjQzP0PMJxauO1Fa-100" value="TimeStamp" style="shape=partialRectangle;connectable=0;fillColor=none;top=0;left=0;bottom=0;right=0;align=left;spacingLeft=6;overflow=hidden;" vertex="1" parent="1">
          <mxGeometry x="365" y="565" width="160" height="30" as="geometry">
            <mxRectangle width="150" height="30" as="alternateBounds" />
          </mxGeometry>
        </mxCell>
        <mxCell id="iGJ6DjQzP0PMJxauO1Fa-101" value="PartnerFund" style="shape=table;startSize=30;container=1;collapsible=1;childLayout=tableLayout;fixedRows=1;rowLines=0;fontStyle=1;align=center;resizeLast=1;" vertex="1" parent="1">
          <mxGeometry x="335" y="720" width="170" height="270" as="geometry" />
        </mxCell>
        <mxCell id="iGJ6DjQzP0PMJxauO1Fa-102" value="" style="shape=tableRow;horizontal=0;startSize=0;swimlaneHead=0;swimlaneBody=0;fillColor=none;collapsible=0;dropTarget=0;points=[[0,0.5],[1,0.5]];portConstraint=eastwest;top=0;left=0;right=0;bottom=1;" vertex="1" parent="iGJ6DjQzP0PMJxauO1Fa-101">
          <mxGeometry y="30" width="170" height="30" as="geometry" />
        </mxCell>
        <mxCell id="iGJ6DjQzP0PMJxauO1Fa-103" value="PK" style="shape=partialRectangle;connectable=0;fillColor=none;top=0;left=0;bottom=0;right=0;fontStyle=1;overflow=hidden;" vertex="1" parent="iGJ6DjQzP0PMJxauO1Fa-102">
          <mxGeometry width="25" height="30" as="geometry">
            <mxRectangle width="25" height="30" as="alternateBounds" />
          </mxGeometry>
        </mxCell>
        <mxCell id="iGJ6DjQzP0PMJxauO1Fa-104" value="FundID" style="shape=partialRectangle;connectable=0;fillColor=none;top=0;left=0;bottom=0;right=0;align=left;spacingLeft=6;fontStyle=5;overflow=hidden;" vertex="1" parent="iGJ6DjQzP0PMJxauO1Fa-102">
          <mxGeometry x="25" width="145" height="30" as="geometry">
            <mxRectangle width="145" height="30" as="alternateBounds" />
          </mxGeometry>
        </mxCell>
        <mxCell id="iGJ6DjQzP0PMJxauO1Fa-105" value="" style="shape=tableRow;horizontal=0;startSize=0;swimlaneHead=0;swimlaneBody=0;fillColor=none;collapsible=0;dropTarget=0;points=[[0,0.5],[1,0.5]];portConstraint=eastwest;top=0;left=0;right=0;bottom=0;" vertex="1" parent="iGJ6DjQzP0PMJxauO1Fa-101">
          <mxGeometry y="60" width="170" height="30" as="geometry" />
        </mxCell>
        <mxCell id="iGJ6DjQzP0PMJxauO1Fa-106" value="" style="shape=partialRectangle;connectable=0;fillColor=none;top=0;left=0;bottom=0;right=0;editable=1;overflow=hidden;" vertex="1" parent="iGJ6DjQzP0PMJxauO1Fa-105">
          <mxGeometry width="25" height="30" as="geometry">
            <mxRectangle width="25" height="30" as="alternateBounds" />
          </mxGeometry>
        </mxCell>
        <mxCell id="iGJ6DjQzP0PMJxauO1Fa-107" value="PartnerID" style="shape=partialRectangle;connectable=0;fillColor=none;top=0;left=0;bottom=0;right=0;align=left;spacingLeft=6;overflow=hidden;" vertex="1" parent="iGJ6DjQzP0PMJxauO1Fa-105">
          <mxGeometry x="25" width="145" height="30" as="geometry">
            <mxRectangle width="145" height="30" as="alternateBounds" />
          </mxGeometry>
        </mxCell>
        <mxCell id="iGJ6DjQzP0PMJxauO1Fa-108" value="" style="shape=tableRow;horizontal=0;startSize=0;swimlaneHead=0;swimlaneBody=0;fillColor=none;collapsible=0;dropTarget=0;points=[[0,0.5],[1,0.5]];portConstraint=eastwest;top=0;left=0;right=0;bottom=0;" vertex="1" parent="iGJ6DjQzP0PMJxauO1Fa-101">
          <mxGeometry y="90" width="170" height="30" as="geometry" />
        </mxCell>
        <mxCell id="iGJ6DjQzP0PMJxauO1Fa-109" value="" style="shape=partialRectangle;connectable=0;fillColor=none;top=0;left=0;bottom=0;right=0;editable=1;overflow=hidden;" vertex="1" parent="iGJ6DjQzP0PMJxauO1Fa-108">
          <mxGeometry width="25" height="30" as="geometry">
            <mxRectangle width="25" height="30" as="alternateBounds" />
          </mxGeometry>
        </mxCell>
        <mxCell id="iGJ6DjQzP0PMJxauO1Fa-110" value="CapitalAmt" style="shape=partialRectangle;connectable=0;fillColor=none;top=0;left=0;bottom=0;right=0;align=left;spacingLeft=6;overflow=hidden;" vertex="1" parent="iGJ6DjQzP0PMJxauO1Fa-108">
          <mxGeometry x="25" width="145" height="30" as="geometry">
            <mxRectangle width="145" height="30" as="alternateBounds" />
          </mxGeometry>
        </mxCell>
        <mxCell id="iGJ6DjQzP0PMJxauO1Fa-111" value="" style="shape=tableRow;horizontal=0;startSize=0;swimlaneHead=0;swimlaneBody=0;fillColor=none;collapsible=0;dropTarget=0;points=[[0,0.5],[1,0.5]];portConstraint=eastwest;top=0;left=0;right=0;bottom=0;" vertex="1" parent="iGJ6DjQzP0PMJxauO1Fa-101">
          <mxGeometry y="120" width="170" height="150" as="geometry" />
        </mxCell>
        <mxCell id="iGJ6DjQzP0PMJxauO1Fa-112" value="" style="shape=partialRectangle;connectable=0;fillColor=none;top=0;left=0;bottom=0;right=0;editable=1;overflow=hidden;" vertex="1" parent="iGJ6DjQzP0PMJxauO1Fa-111">
          <mxGeometry width="25" height="150" as="geometry">
            <mxRectangle width="25" height="150" as="alternateBounds" />
          </mxGeometry>
        </mxCell>
        <mxCell id="iGJ6DjQzP0PMJxauO1Fa-113" value="" style="shape=partialRectangle;connectable=0;fillColor=none;top=0;left=0;bottom=0;right=0;align=left;spacingLeft=6;overflow=hidden;" vertex="1" parent="iGJ6DjQzP0PMJxauO1Fa-111">
          <mxGeometry x="25" width="145" height="150" as="geometry">
            <mxRectangle width="145" height="150" as="alternateBounds" />
          </mxGeometry>
        </mxCell>
        <mxCell id="iGJ6DjQzP0PMJxauO1Fa-114" value="DistributeAmt" style="shape=partialRectangle;connectable=0;fillColor=none;top=0;left=0;bottom=0;right=0;align=left;spacingLeft=6;overflow=hidden;" vertex="1" parent="1">
          <mxGeometry x="362" y="840" width="150" height="30" as="geometry">
            <mxRectangle width="150" height="30" as="alternateBounds" />
          </mxGeometry>
        </mxCell>
        <mxCell id="iGJ6DjQzP0PMJxauO1Fa-118" value="NoteID" style="shape=partialRectangle;connectable=0;fillColor=none;top=0;left=0;bottom=0;right=0;align=left;spacingLeft=6;overflow=hidden;" vertex="1" parent="1">
          <mxGeometry x="362" y="899" width="150" height="30" as="geometry">
            <mxRectangle width="150" height="30" as="alternateBounds" />
          </mxGeometry>
        </mxCell>
        <mxCell id="iGJ6DjQzP0PMJxauO1Fa-119" value="ModifiedBy" style="shape=partialRectangle;connectable=0;fillColor=none;top=0;left=0;bottom=0;right=0;align=left;spacingLeft=6;overflow=hidden;" vertex="1" parent="1">
          <mxGeometry x="362" y="929" width="150" height="30" as="geometry">
            <mxRectangle width="150" height="30" as="alternateBounds" />
          </mxGeometry>
        </mxCell>
        <mxCell id="iGJ6DjQzP0PMJxauO1Fa-120" value="ModifiedDate" style="shape=partialRectangle;connectable=0;fillColor=none;top=0;left=0;bottom=0;right=0;align=left;spacingLeft=6;overflow=hidden;" vertex="1" parent="1">
          <mxGeometry x="362" y="959" width="150" height="30" as="geometry">
            <mxRectangle width="150" height="30" as="alternateBounds" />
          </mxGeometry>
        </mxCell>
        <mxCell id="iGJ6DjQzP0PMJxauO1Fa-121" value="Ownership" style="shape=partialRectangle;connectable=0;fillColor=none;top=0;left=0;bottom=0;right=0;align=left;spacingLeft=6;overflow=hidden;" vertex="1" parent="1">
          <mxGeometry x="361" y="870" width="150" height="30" as="geometry">
            <mxRectangle width="150" height="30" as="alternateBounds" />
          </mxGeometry>
        </mxCell>
        <mxCell id="iGJ6DjQzP0PMJxauO1Fa-138" value="Investment" style="shape=table;startSize=30;container=1;collapsible=1;childLayout=tableLayout;fixedRows=1;rowLines=0;fontStyle=1;align=center;resizeLast=1;" vertex="1" parent="1">
          <mxGeometry x="580" y="599" width="180" height="391" as="geometry" />
        </mxCell>
        <mxCell id="iGJ6DjQzP0PMJxauO1Fa-139" value="" style="shape=tableRow;horizontal=0;startSize=0;swimlaneHead=0;swimlaneBody=0;fillColor=none;collapsible=0;dropTarget=0;points=[[0,0.5],[1,0.5]];portConstraint=eastwest;top=0;left=0;right=0;bottom=1;" vertex="1" parent="iGJ6DjQzP0PMJxauO1Fa-138">
          <mxGeometry y="30" width="180" height="30" as="geometry" />
        </mxCell>
        <mxCell id="iGJ6DjQzP0PMJxauO1Fa-140" value="PK" style="shape=partialRectangle;connectable=0;fillColor=none;top=0;left=0;bottom=0;right=0;fontStyle=1;overflow=hidden;" vertex="1" parent="iGJ6DjQzP0PMJxauO1Fa-139">
          <mxGeometry width="30" height="30" as="geometry">
            <mxRectangle width="30" height="30" as="alternateBounds" />
          </mxGeometry>
        </mxCell>
        <mxCell id="iGJ6DjQzP0PMJxauO1Fa-141" value="InvestID" style="shape=partialRectangle;connectable=0;fillColor=none;top=0;left=0;bottom=0;right=0;align=left;spacingLeft=6;fontStyle=5;overflow=hidden;" vertex="1" parent="iGJ6DjQzP0PMJxauO1Fa-139">
          <mxGeometry x="30" width="150" height="30" as="geometry">
            <mxRectangle width="150" height="30" as="alternateBounds" />
          </mxGeometry>
        </mxCell>
        <mxCell id="iGJ6DjQzP0PMJxauO1Fa-142" value="" style="shape=tableRow;horizontal=0;startSize=0;swimlaneHead=0;swimlaneBody=0;fillColor=none;collapsible=0;dropTarget=0;points=[[0,0.5],[1,0.5]];portConstraint=eastwest;top=0;left=0;right=0;bottom=0;" vertex="1" parent="iGJ6DjQzP0PMJxauO1Fa-138">
          <mxGeometry y="60" width="180" height="30" as="geometry" />
        </mxCell>
        <mxCell id="iGJ6DjQzP0PMJxauO1Fa-143" value="" style="shape=partialRectangle;connectable=0;fillColor=none;top=0;left=0;bottom=0;right=0;editable=1;overflow=hidden;" vertex="1" parent="iGJ6DjQzP0PMJxauO1Fa-142">
          <mxGeometry width="30" height="30" as="geometry">
            <mxRectangle width="30" height="30" as="alternateBounds" />
          </mxGeometry>
        </mxCell>
        <mxCell id="iGJ6DjQzP0PMJxauO1Fa-144" value="FundID" style="shape=partialRectangle;connectable=0;fillColor=none;top=0;left=0;bottom=0;right=0;align=left;spacingLeft=6;overflow=hidden;fontStyle=1" vertex="1" parent="iGJ6DjQzP0PMJxauO1Fa-142">
          <mxGeometry x="30" width="150" height="30" as="geometry">
            <mxRectangle width="150" height="30" as="alternateBounds" />
          </mxGeometry>
        </mxCell>
        <mxCell id="iGJ6DjQzP0PMJxauO1Fa-145" value="" style="shape=tableRow;horizontal=0;startSize=0;swimlaneHead=0;swimlaneBody=0;fillColor=none;collapsible=0;dropTarget=0;points=[[0,0.5],[1,0.5]];portConstraint=eastwest;top=0;left=0;right=0;bottom=0;" vertex="1" parent="iGJ6DjQzP0PMJxauO1Fa-138">
          <mxGeometry y="90" width="180" height="301" as="geometry" />
        </mxCell>
        <mxCell id="iGJ6DjQzP0PMJxauO1Fa-146" value="" style="shape=partialRectangle;connectable=0;fillColor=none;top=0;left=0;bottom=0;right=0;editable=1;overflow=hidden;" vertex="1" parent="iGJ6DjQzP0PMJxauO1Fa-145">
          <mxGeometry width="30" height="301" as="geometry">
            <mxRectangle width="30" height="301" as="alternateBounds" />
          </mxGeometry>
        </mxCell>
        <mxCell id="iGJ6DjQzP0PMJxauO1Fa-147" value="" style="shape=partialRectangle;connectable=0;fillColor=none;top=0;left=0;bottom=0;right=0;align=left;spacingLeft=6;overflow=hidden;" vertex="1" parent="iGJ6DjQzP0PMJxauO1Fa-145">
          <mxGeometry x="30" width="150" height="301" as="geometry">
            <mxRectangle width="150" height="301" as="alternateBounds" />
          </mxGeometry>
        </mxCell>
        <mxCell id="iGJ6DjQzP0PMJxauO1Fa-148" value="InvestNum" style="shape=partialRectangle;connectable=0;fillColor=none;top=0;left=0;bottom=0;right=0;align=left;spacingLeft=6;overflow=hidden;" vertex="1" parent="1">
          <mxGeometry x="610" y="689" width="150" height="30" as="geometry">
            <mxRectangle width="150" height="30" as="alternateBounds" />
          </mxGeometry>
        </mxCell>
        <mxCell id="iGJ6DjQzP0PMJxauO1Fa-149" value="Name" style="shape=partialRectangle;connectable=0;fillColor=none;top=0;left=0;bottom=0;right=0;align=left;spacingLeft=6;overflow=hidden;" vertex="1" parent="1">
          <mxGeometry x="610" y="719" width="150" height="30" as="geometry">
            <mxRectangle width="150" height="30" as="alternateBounds" />
          </mxGeometry>
        </mxCell>
        <mxCell id="iGJ6DjQzP0PMJxauO1Fa-150" value="AdjustCost" style="shape=partialRectangle;connectable=0;fillColor=none;top=0;left=0;bottom=0;right=0;align=left;spacingLeft=6;overflow=hidden;" vertex="1" parent="1">
          <mxGeometry x="610" y="779" width="150" height="30" as="geometry">
            <mxRectangle width="150" height="30" as="alternateBounds" />
          </mxGeometry>
        </mxCell>
        <mxCell id="iGJ6DjQzP0PMJxauO1Fa-151" value="CommitAmt" style="shape=partialRectangle;connectable=0;fillColor=none;top=0;left=0;bottom=0;right=0;align=left;spacingLeft=6;overflow=hidden;" vertex="1" parent="1">
          <mxGeometry x="610" y="749" width="150" height="30" as="geometry">
            <mxRectangle width="150" height="30" as="alternateBounds" />
          </mxGeometry>
        </mxCell>
        <mxCell id="iGJ6DjQzP0PMJxauO1Fa-152" value="TotalInvest" style="shape=partialRectangle;connectable=0;fillColor=none;top=0;left=0;bottom=0;right=0;align=left;spacingLeft=6;overflow=hidden;" vertex="1" parent="1">
          <mxGeometry x="610" y="809" width="150" height="30" as="geometry">
            <mxRectangle width="150" height="30" as="alternateBounds" />
          </mxGeometry>
        </mxCell>
        <mxCell id="iGJ6DjQzP0PMJxauO1Fa-153" value="StartDate" style="shape=partialRectangle;connectable=0;fillColor=none;top=0;left=0;bottom=0;right=0;align=left;spacingLeft=6;overflow=hidden;" vertex="1" parent="1">
          <mxGeometry x="610" y="839" width="150" height="30" as="geometry">
            <mxRectangle width="150" height="30" as="alternateBounds" />
          </mxGeometry>
        </mxCell>
        <mxCell id="iGJ6DjQzP0PMJxauO1Fa-154" value="ModifiedBy" style="shape=partialRectangle;connectable=0;fillColor=none;top=0;left=0;bottom=0;right=0;align=left;spacingLeft=6;overflow=hidden;" vertex="1" parent="1">
          <mxGeometry x="610" y="929" width="150" height="30" as="geometry">
            <mxRectangle width="150" height="30" as="alternateBounds" />
          </mxGeometry>
        </mxCell>
        <mxCell id="iGJ6DjQzP0PMJxauO1Fa-155" value="ModifiedDate" style="shape=partialRectangle;connectable=0;fillColor=none;top=0;left=0;bottom=0;right=0;align=left;spacingLeft=6;overflow=hidden;" vertex="1" parent="1">
          <mxGeometry x="610" y="959" width="150" height="30" as="geometry">
            <mxRectangle width="150" height="30" as="alternateBounds" />
          </mxGeometry>
        </mxCell>
        <mxCell id="iGJ6DjQzP0PMJxauO1Fa-156" value="EndDate" style="shape=partialRectangle;connectable=0;fillColor=none;top=0;left=0;bottom=0;right=0;align=left;spacingLeft=6;overflow=hidden;" vertex="1" parent="1">
          <mxGeometry x="610" y="869" width="150" height="30" as="geometry">
            <mxRectangle width="150" height="30" as="alternateBounds" />
          </mxGeometry>
        </mxCell>
        <mxCell id="iGJ6DjQzP0PMJxauO1Fa-157" value="NoteID" style="shape=partialRectangle;connectable=0;fillColor=none;top=0;left=0;bottom=0;right=0;align=left;spacingLeft=6;overflow=hidden;" vertex="1" parent="1">
          <mxGeometry x="610" y="900" width="150" height="30" as="geometry">
            <mxRectangle width="150" height="30" as="alternateBounds" />
          </mxGeometry>
        </mxCell>
        <mxCell id="iGJ6DjQzP0PMJxauO1Fa-158" value="" style="shape=partialRectangle;connectable=0;fillColor=none;top=0;left=0;bottom=0;right=0;editable=1;overflow=hidden;" vertex="1" parent="1">
          <mxGeometry x="320" y="1220" width="30" height="30" as="geometry">
            <mxRectangle width="30" height="30" as="alternateBounds" />
          </mxGeometry>
        </mxCell>
        <mxCell id="iGJ6DjQzP0PMJxauO1Fa-159" value="Bank" style="shape=table;startSize=30;container=1;collapsible=1;childLayout=tableLayout;fixedRows=1;rowLines=0;fontStyle=1;align=center;resizeLast=1;" vertex="1" parent="1">
          <mxGeometry x="320" y="1120" width="170" height="290" as="geometry" />
        </mxCell>
        <mxCell id="iGJ6DjQzP0PMJxauO1Fa-160" value="" style="shape=tableRow;horizontal=0;startSize=0;swimlaneHead=0;swimlaneBody=0;fillColor=none;collapsible=0;dropTarget=0;points=[[0,0.5],[1,0.5]];portConstraint=eastwest;top=0;left=0;right=0;bottom=1;" vertex="1" parent="iGJ6DjQzP0PMJxauO1Fa-159">
          <mxGeometry y="30" width="170" height="30" as="geometry" />
        </mxCell>
        <mxCell id="iGJ6DjQzP0PMJxauO1Fa-161" value="PK" style="shape=partialRectangle;connectable=0;fillColor=none;top=0;left=0;bottom=0;right=0;fontStyle=1;overflow=hidden;" vertex="1" parent="iGJ6DjQzP0PMJxauO1Fa-160">
          <mxGeometry width="25" height="30" as="geometry">
            <mxRectangle width="25" height="30" as="alternateBounds" />
          </mxGeometry>
        </mxCell>
        <mxCell id="iGJ6DjQzP0PMJxauO1Fa-162" value="BankID" style="shape=partialRectangle;connectable=0;fillColor=none;top=0;left=0;bottom=0;right=0;align=left;spacingLeft=6;fontStyle=5;overflow=hidden;" vertex="1" parent="iGJ6DjQzP0PMJxauO1Fa-160">
          <mxGeometry x="25" width="145" height="30" as="geometry">
            <mxRectangle width="145" height="30" as="alternateBounds" />
          </mxGeometry>
        </mxCell>
        <mxCell id="iGJ6DjQzP0PMJxauO1Fa-163" value="" style="shape=tableRow;horizontal=0;startSize=0;swimlaneHead=0;swimlaneBody=0;fillColor=none;collapsible=0;dropTarget=0;points=[[0,0.5],[1,0.5]];portConstraint=eastwest;top=0;left=0;right=0;bottom=0;" vertex="1" parent="iGJ6DjQzP0PMJxauO1Fa-159">
          <mxGeometry y="60" width="170" height="30" as="geometry" />
        </mxCell>
        <mxCell id="iGJ6DjQzP0PMJxauO1Fa-164" value="" style="shape=partialRectangle;connectable=0;fillColor=none;top=0;left=0;bottom=0;right=0;editable=1;overflow=hidden;" vertex="1" parent="iGJ6DjQzP0PMJxauO1Fa-163">
          <mxGeometry width="25" height="30" as="geometry">
            <mxRectangle width="25" height="30" as="alternateBounds" />
          </mxGeometry>
        </mxCell>
        <mxCell id="iGJ6DjQzP0PMJxauO1Fa-165" value="BankType" style="shape=partialRectangle;connectable=0;fillColor=none;top=0;left=0;bottom=0;right=0;align=left;spacingLeft=6;overflow=hidden;" vertex="1" parent="iGJ6DjQzP0PMJxauO1Fa-163">
          <mxGeometry x="25" width="145" height="30" as="geometry">
            <mxRectangle width="145" height="30" as="alternateBounds" />
          </mxGeometry>
        </mxCell>
        <mxCell id="iGJ6DjQzP0PMJxauO1Fa-166" value="" style="shape=tableRow;horizontal=0;startSize=0;swimlaneHead=0;swimlaneBody=0;fillColor=none;collapsible=0;dropTarget=0;points=[[0,0.5],[1,0.5]];portConstraint=eastwest;top=0;left=0;right=0;bottom=0;" vertex="1" parent="iGJ6DjQzP0PMJxauO1Fa-159">
          <mxGeometry y="90" width="170" height="30" as="geometry" />
        </mxCell>
        <mxCell id="iGJ6DjQzP0PMJxauO1Fa-167" value="" style="shape=partialRectangle;connectable=0;fillColor=none;top=0;left=0;bottom=0;right=0;editable=1;overflow=hidden;" vertex="1" parent="iGJ6DjQzP0PMJxauO1Fa-166">
          <mxGeometry width="25" height="30" as="geometry">
            <mxRectangle width="25" height="30" as="alternateBounds" />
          </mxGeometry>
        </mxCell>
        <mxCell id="iGJ6DjQzP0PMJxauO1Fa-168" value="BankAcct" style="shape=partialRectangle;connectable=0;fillColor=none;top=0;left=0;bottom=0;right=0;align=left;spacingLeft=6;overflow=hidden;" vertex="1" parent="iGJ6DjQzP0PMJxauO1Fa-166">
          <mxGeometry x="25" width="145" height="30" as="geometry">
            <mxRectangle width="145" height="30" as="alternateBounds" />
          </mxGeometry>
        </mxCell>
        <mxCell id="iGJ6DjQzP0PMJxauO1Fa-169" value="" style="shape=tableRow;horizontal=0;startSize=0;swimlaneHead=0;swimlaneBody=0;fillColor=none;collapsible=0;dropTarget=0;points=[[0,0.5],[1,0.5]];portConstraint=eastwest;top=0;left=0;right=0;bottom=0;" vertex="1" parent="iGJ6DjQzP0PMJxauO1Fa-159">
          <mxGeometry y="120" width="170" height="170" as="geometry" />
        </mxCell>
        <mxCell id="iGJ6DjQzP0PMJxauO1Fa-170" value="" style="shape=partialRectangle;connectable=0;fillColor=none;top=0;left=0;bottom=0;right=0;editable=1;overflow=hidden;" vertex="1" parent="iGJ6DjQzP0PMJxauO1Fa-169">
          <mxGeometry width="25" height="170" as="geometry">
            <mxRectangle width="25" height="170" as="alternateBounds" />
          </mxGeometry>
        </mxCell>
        <mxCell id="iGJ6DjQzP0PMJxauO1Fa-171" value="" style="shape=partialRectangle;connectable=0;fillColor=none;top=0;left=0;bottom=0;right=0;align=left;spacingLeft=6;overflow=hidden;" vertex="1" parent="iGJ6DjQzP0PMJxauO1Fa-169">
          <mxGeometry x="25" width="145" height="170" as="geometry">
            <mxRectangle width="145" height="170" as="alternateBounds" />
          </mxGeometry>
        </mxCell>
        <mxCell id="iGJ6DjQzP0PMJxauO1Fa-172" value="BankName" style="shape=partialRectangle;connectable=0;fillColor=none;top=0;left=0;bottom=0;right=0;align=left;spacingLeft=6;overflow=hidden;" vertex="1" parent="1">
          <mxGeometry x="347" y="1240" width="150" height="30" as="geometry">
            <mxRectangle width="150" height="30" as="alternateBounds" />
          </mxGeometry>
        </mxCell>
        <mxCell id="iGJ6DjQzP0PMJxauO1Fa-173" value="NoteID" style="shape=partialRectangle;connectable=0;fillColor=none;top=0;left=0;bottom=0;right=0;align=left;spacingLeft=6;overflow=hidden;" vertex="1" parent="1">
          <mxGeometry x="347" y="1322" width="150" height="30" as="geometry">
            <mxRectangle width="150" height="30" as="alternateBounds" />
          </mxGeometry>
        </mxCell>
        <mxCell id="iGJ6DjQzP0PMJxauO1Fa-174" value="ModifiedBy" style="shape=partialRectangle;connectable=0;fillColor=none;top=0;left=0;bottom=0;right=0;align=left;spacingLeft=6;overflow=hidden;" vertex="1" parent="1">
          <mxGeometry x="347" y="1348" width="150" height="30" as="geometry">
            <mxRectangle width="150" height="30" as="alternateBounds" />
          </mxGeometry>
        </mxCell>
        <mxCell id="iGJ6DjQzP0PMJxauO1Fa-175" value="ModifiedDate" style="shape=partialRectangle;connectable=0;fillColor=none;top=0;left=0;bottom=0;right=0;align=left;spacingLeft=6;overflow=hidden;" vertex="1" parent="1">
          <mxGeometry x="347" y="1378" width="150" height="30" as="geometry">
            <mxRectangle width="150" height="30" as="alternateBounds" />
          </mxGeometry>
        </mxCell>
        <mxCell id="iGJ6DjQzP0PMJxauO1Fa-176" value="Routing" style="shape=partialRectangle;connectable=0;fillColor=none;top=0;left=0;bottom=0;right=0;align=left;spacingLeft=6;overflow=hidden;" vertex="1" parent="1">
          <mxGeometry x="346" y="1270" width="150" height="30" as="geometry">
            <mxRectangle width="150" height="30" as="alternateBounds" />
          </mxGeometry>
        </mxCell>
        <mxCell id="iGJ6DjQzP0PMJxauO1Fa-177" value="Currency" style="shape=partialRectangle;connectable=0;fillColor=none;top=0;left=0;bottom=0;right=0;align=left;spacingLeft=6;overflow=hidden;" vertex="1" parent="1">
          <mxGeometry x="345" y="1294" width="150" height="30" as="geometry">
            <mxRectangle width="150" height="30" as="alternateBounds" />
          </mxGeometry>
        </mxCell>
      </root>
    </mxGraphModel>
  </diagram>
  <diagram id="Ivefb0S5VONSxRo1nUe2" name="Page-3">
    <mxGraphModel dx="1387" dy="764" grid="1" gridSize="10" guides="1" tooltips="1" connect="1" arrows="1" fold="1" page="1" pageScale="1" pageWidth="850" pageHeight="1100" math="0" shadow="0">
      <root>
        <mxCell id="0" />
        <mxCell id="1" parent="0" />
      </root>
    </mxGraphModel>
  </diagram>
</mxfile>
